M48
; DRILL file KiCad 10.0.1 date 2026-05-09T05:15:36
; FORMAT={-:-/ absolute / metric / decimal}
; #@! TF.CreationDate,2026-05-09T05:15:36+02:00
; #@! TF.GenerationSoftware,Kicad,Pcbnew,10.0.1
; #@! TF.FileFunction,Plated,1,2,PTH
FMAT,2
METRIC
; #@! TA.AperFunction,Plated,PTH,ViaDrill
T1C0.300
; #@! TA.AperFunction,Plated,PTH,ComponentDrill
T2C1.000
; #@! TA.AperFunction,Plated,PTH,ComponentDrill
T3C1.020
; #@! TA.AperFunction,Plated,PTH,ComponentDrill
T4C1.300
%
G90
G05
T1
X68.072Y-57.912
X69.374Y-62.874
X106.161Y-58.956
X112.308Y-73.434
X135.32Y-67.643
X138.318Y-51.234
X149.29Y-70.488
T2
X74.5Y-50.5
X74.5Y-60.5
X74.5Y-70.5
X74.5Y-80.5
X74.5Y-91.0
X79.5Y-48.0
X79.5Y-53.0
X79.5Y-58.0
X79.5Y-63.0
X79.5Y-68.0
X79.5Y-73.0
X79.5Y-78.0
X79.5Y-83.0
X79.5Y-88.5
X79.5Y-93.5
X94.46Y-46.48
X94.46Y-49.02
X94.46Y-51.56
X94.46Y-54.1
X94.46Y-56.64
X94.46Y-59.18
X94.46Y-61.72
X94.46Y-64.26
X94.46Y-66.8
X94.46Y-69.34
X94.46Y-71.88
X94.46Y-74.42
X94.46Y-76.96
X94.46Y-79.5
X94.46Y-82.04
X94.46Y-84.58
X94.46Y-87.12
X94.46Y-89.66
X94.46Y-92.2
X94.46Y-94.74
X94.46Y-97.28
X94.46Y-99.82
X97.0Y-46.48
X97.0Y-49.02
X97.0Y-51.56
X97.0Y-54.1
X97.0Y-56.64
X97.0Y-59.18
X97.0Y-61.72
X97.0Y-64.26
X97.0Y-66.8
X97.0Y-69.34
X97.0Y-71.88
X97.0Y-74.42
X97.0Y-76.96
X97.0Y-79.5
X97.0Y-82.04
X97.0Y-84.58
X97.0Y-87.12
X97.0Y-89.66
X97.0Y-92.2
X97.0Y-94.74
X97.0Y-97.28
X97.0Y-99.82
X129.5Y-50.0
X129.5Y-55.0
X129.5Y-60.0
X129.5Y-65.0
X129.5Y-70.0
X129.5Y-75.0
X129.5Y-80.562
X129.5Y-85.562
X129.5Y-90.75
X129.5Y-95.75
X134.5Y-52.5
X134.5Y-62.5
X134.5Y-72.5
X134.5Y-83.063
X134.5Y-93.25
T3
X119.86Y-46.48
X119.86Y-49.02
X119.86Y-51.56
X119.86Y-54.1
X119.86Y-56.64
X119.86Y-59.18
X119.86Y-61.72
X119.86Y-64.26
X119.86Y-66.8
X119.86Y-69.34
X119.86Y-71.88
X119.86Y-74.42
X119.86Y-76.96
X119.86Y-79.5
X119.86Y-82.04
X119.86Y-84.58
X119.86Y-87.12
X119.86Y-89.66
X119.86Y-92.2
X119.86Y-94.74
X119.86Y-97.28
X119.86Y-99.82
T4
X68.58Y-70.358
X68.58Y-72.898
X68.58Y-75.438
M30
