%TF.GenerationSoftware,KiCad,Pcbnew,10.0.1*%
%TF.CreationDate,2026-05-09T05:15:25+02:00*%
%TF.ProjectId,kart-medulla,6b617274-2d6d-4656-9475-6c6c612e6b69,rev?*%
%TF.SameCoordinates,Original*%
%TF.FileFunction,Soldermask,Top*%
%TF.FilePolarity,Negative*%
%FSLAX46Y46*%
G04 Gerber Fmt 4.6, Leading zero omitted, Abs format (unit mm)*
G04 Created by KiCad (PCBNEW 10.0.1) date 2026-05-09 05:15:25*
%MOMM*%
%LPD*%
G01*
G04 APERTURE LIST*
G04 Aperture macros list*
%AMRoundRect*
0 Rectangle with rounded corners*
0 $1 Rounding radius*
0 $2 $3 $4 $5 $6 $7 $8 $9 X,Y pos of 4 corners*
0 Add a 4 corners polygon primitive as box body*
4,1,4,$2,$3,$4,$5,$6,$7,$8,$9,$2,$3,0*
0 Add four circle primitives for the rounded corners*
1,1,$1+$1,$2,$3*
1,1,$1+$1,$4,$5*
1,1,$1+$1,$6,$7*
1,1,$1+$1,$8,$9*
0 Add four rect primitives between the rounded corners*
20,1,$1+$1,$2,$3,$4,$5,0*
20,1,$1+$1,$4,$5,$6,$7,0*
20,1,$1+$1,$6,$7,$8,$9,0*
20,1,$1+$1,$8,$9,$2,$3,0*%
G04 Aperture macros list end*
%ADD10O,1.660000X1.660000*%
%ADD11R,2.500000X2.000000*%
%ADD12O,2.500000X2.000000*%
%ADD13O,6.000000X6.000000*%
%ADD14R,1.600000X1.600000*%
%ADD15O,1.600000X1.600000*%
%ADD16RoundRect,0.050000X0.800000X-0.800000X0.800000X0.800000X-0.800000X0.800000X-0.800000X-0.800000X0*%
%ADD17O,1.700000X1.700000*%
G04 APERTURE END LIST*
D10*
%TO.C,CN2*%
X129500000Y-80562500D03*
X134500000Y-83062700D03*
X129500000Y-85562500D03*
%TD*%
%TO.C,CN1*%
X129500000Y-90750000D03*
X134500000Y-93250200D03*
X129500000Y-95750000D03*
%TD*%
D11*
%TO.C,Q3*%
X68580000Y-70358000D03*
D12*
X68580000Y-72898000D03*
X68580000Y-75438000D03*
%TD*%
D10*
%TO.C,CN9*%
X79500000Y-83000000D03*
X74500000Y-80499800D03*
X79500000Y-78000000D03*
%TD*%
D13*
%TO.C,PAD3*%
X66000000Y-47000000D03*
%TD*%
D10*
%TO.C,CN3*%
X129500000Y-69999900D03*
X134500000Y-72500100D03*
X129500000Y-74999900D03*
%TD*%
D14*
%TO.C,U23*%
X97000000Y-46480000D03*
D15*
X94460000Y-46480000D03*
X97000000Y-49019900D03*
X94460000Y-49020000D03*
X97000000Y-51559600D03*
X94460000Y-51560000D03*
X97000000Y-54100000D03*
X94460000Y-54100000D03*
X97000000Y-56639600D03*
X94460000Y-56640000D03*
X97000000Y-59180000D03*
X94460000Y-59180000D03*
X97000000Y-61720000D03*
X94460000Y-61720000D03*
X97000000Y-64260000D03*
X94460000Y-64260000D03*
X97000000Y-66800000D03*
X94460000Y-66800000D03*
X97000000Y-69340000D03*
X94460000Y-69340000D03*
X97000000Y-71880000D03*
X94460000Y-71880000D03*
X97000000Y-74420000D03*
X94460000Y-74420000D03*
X97000000Y-76960000D03*
X94460000Y-76960000D03*
X97000000Y-79500000D03*
X94460000Y-79500000D03*
X97000000Y-82040000D03*
X94460000Y-82040000D03*
X97000000Y-84580000D03*
X94460000Y-84580000D03*
X97000000Y-87120000D03*
X94460000Y-87120000D03*
X97000000Y-89660000D03*
X94460000Y-89660000D03*
X97000000Y-92200000D03*
X94460000Y-92200000D03*
X97000000Y-94740000D03*
X94460000Y-94740000D03*
X97000000Y-97280000D03*
X94460000Y-97280000D03*
X97000000Y-99820000D03*
X94460000Y-99820000D03*
%TD*%
D13*
%TO.C,PAD1*%
X66000000Y-103000000D03*
%TD*%
%TO.C,PAD2*%
X156000000Y-103000000D03*
%TD*%
D10*
%TO.C,CN4*%
X129500000Y-59999900D03*
X134500000Y-62500100D03*
X129500000Y-64999900D03*
%TD*%
D13*
%TO.C,PAD4*%
X156000000Y-47000000D03*
%TD*%
D10*
%TO.C,CN7*%
X79500000Y-63000000D03*
X74500000Y-60499800D03*
X79500000Y-58000000D03*
%TD*%
%TO.C,CN10*%
X79500000Y-93500000D03*
X74500000Y-90999800D03*
X79500000Y-88500000D03*
%TD*%
%TO.C,CN6*%
X79500000Y-53000000D03*
X74500000Y-50499800D03*
X79500000Y-48000000D03*
%TD*%
D16*
%TO.C,U24*%
X119860000Y-99820000D03*
D17*
X119860000Y-97280000D03*
X119860000Y-94740000D03*
X119860000Y-92200000D03*
X119860000Y-89660000D03*
X119860000Y-87120000D03*
X119860000Y-84580000D03*
X119860000Y-82040000D03*
X119860000Y-79500000D03*
X119860000Y-76960000D03*
X119860000Y-74420000D03*
X119860000Y-71880000D03*
X119860000Y-69340000D03*
X119860000Y-66800000D03*
X119860000Y-64260000D03*
X119860000Y-61720000D03*
X119860000Y-59180000D03*
X119860000Y-56640000D03*
X119860000Y-54100000D03*
X119860000Y-51560000D03*
X119860000Y-49020000D03*
X119860000Y-46480000D03*
%TD*%
D10*
%TO.C,CN5*%
X129500000Y-50000000D03*
X134500000Y-52500200D03*
X129500000Y-55000000D03*
%TD*%
%TO.C,CN8*%
X79500000Y-73000000D03*
X74500000Y-70499800D03*
X79500000Y-68000000D03*
%TD*%
M02*
