ISO-10303-21;
HEADER;
FILE_DESCRIPTION(('FreeCAD Model'),'2;1');
FILE_NAME('Open CASCADE Shape Model','2025-09-15T20:02:28',(''),(''),
  'Open CASCADE STEP processor 7.8','FreeCAD','Unknown');
FILE_SCHEMA(('AUTOMOTIVE_DESIGN { 1 0 10303 214 1 1 1 1 }'));
ENDSEC;
DATA;
#1 = APPLICATION_PROTOCOL_DEFINITION('international standard',
  'automotive_design',2000,#2);
#2 = APPLICATION_CONTEXT(
  'core data for automotive mechanical design processes');
#3 = SHAPE_DEFINITION_REPRESENTATION(#4,#10);
#4 = PRODUCT_DEFINITION_SHAPE('','',#5);
#5 = PRODUCT_DEFINITION('design','',#6,#9);
#6 = PRODUCT_DEFINITION_FORMATION('','',#7);
#7 = PRODUCT('SOIC_Thermal_Pad_standard','SOIC_Thermal_Pad_standard','',
  (#8));
#8 = PRODUCT_CONTEXT('',#2,'mechanical');
#9 = PRODUCT_DEFINITION_CONTEXT('part definition',#2,'design');
#10 = SHAPE_REPRESENTATION('',(#11,#15,#19,#23,#27),#31);
#11 = AXIS2_PLACEMENT_3D('',#12,#13,#14);
#12 = CARTESIAN_POINT('',(0.,0.,0.));
#13 = DIRECTION('',(0.,0.,1.));
#14 = DIRECTION('',(1.,0.,-0.));
#15 = AXIS2_PLACEMENT_3D('',#16,#17,#18);
#16 = CARTESIAN_POINT('',(0.,0.,0.));
#17 = DIRECTION('',(0.,0.,1.));
#18 = DIRECTION('',(1.,0.,0.));
#19 = AXIS2_PLACEMENT_3D('',#20,#21,#22);
#20 = CARTESIAN_POINT('',(0.,0.,0.));
#21 = DIRECTION('',(0.,0.,1.));
#22 = DIRECTION('',(1.,0.,0.));
#23 = AXIS2_PLACEMENT_3D('',#24,#25,#26);
#24 = CARTESIAN_POINT('',(0.,0.,0.));
#25 = DIRECTION('',(0.,0.,1.));
#26 = DIRECTION('',(1.,0.,0.));
#27 = AXIS2_PLACEMENT_3D('',#28,#29,#30);
#28 = CARTESIAN_POINT('',(0.,0.,0.));
#29 = DIRECTION('',(0.,0.,1.));
#30 = DIRECTION('',(1.,0.,0.));
#31 = ( GEOMETRIC_REPRESENTATION_CONTEXT(3) 
GLOBAL_UNCERTAINTY_ASSIGNED_CONTEXT((#35)) GLOBAL_UNIT_ASSIGNED_CONTEXT(
(#32,#33,#34)) REPRESENTATION_CONTEXT('Context #1',
  '3D Context with UNIT and UNCERTAINTY') );
#32 = ( LENGTH_UNIT() NAMED_UNIT(*) SI_UNIT(.MILLI.,.METRE.) );
#33 = ( NAMED_UNIT(*) PLANE_ANGLE_UNIT() SI_UNIT($,.RADIAN.) );
#34 = ( NAMED_UNIT(*) SI_UNIT($,.STERADIAN.) SOLID_ANGLE_UNIT() );
#35 = UNCERTAINTY_MEASURE_WITH_UNIT(LENGTH_MEASURE(5.E-07),#32,
  'distance_accuracy_value','confusion accuracy');
#36 = PRODUCT_RELATED_PRODUCT_CATEGORY('part',$,(#7));
#37 = SHAPE_DEFINITION_REPRESENTATION(#38,#44);
#38 = PRODUCT_DEFINITION_SHAPE('','',#39);
#39 = PRODUCT_DEFINITION('design','',#40,#43);
#40 = PRODUCT_DEFINITION_FORMATION('','',#41);
#41 = PRODUCT('Body002','Body002','',(#42));
#42 = PRODUCT_CONTEXT('',#2,'mechanical');
#43 = PRODUCT_DEFINITION_CONTEXT('part definition',#2,'design');
#44 = ADVANCED_BREP_SHAPE_REPRESENTATION('',(#11,#45),#195);
#45 = MANIFOLD_SOLID_BREP('',#46);
#46 = CLOSED_SHELL('',(#47,#87,#118,#149,#171,#183));
#47 = ADVANCED_FACE('',(#48),#82,.T.);
#48 = FACE_BOUND('',#49,.T.);
#49 = EDGE_LOOP('',(#50,#60,#68,#76));
#50 = ORIENTED_EDGE('',*,*,#51,.T.);
#51 = EDGE_CURVE('',#52,#54,#56,.T.);
#52 = VERTEX_POINT('',#53);
#53 = CARTESIAN_POINT('',(-0.845,-2.622901895677E-16,-1.18125));
#54 = VERTEX_POINT('',#55);
#55 = CARTESIAN_POINT('',(-0.845,0.101899027327,-1.18125));
#56 = LINE('',#57,#58);
#57 = CARTESIAN_POINT('',(-0.845,-2.622901895677E-16,-1.18125));
#58 = VECTOR('',#59,1.);
#59 = DIRECTION('',(-0.,1.,-2.E-16));
#60 = ORIENTED_EDGE('',*,*,#61,.T.);
#61 = EDGE_CURVE('',#54,#62,#64,.T.);
#62 = VERTEX_POINT('',#63);
#63 = CARTESIAN_POINT('',(0.845,0.101899027327,-1.18125));
#64 = LINE('',#65,#66);
#65 = CARTESIAN_POINT('',(-0.845,0.101899027327,-1.18125));
#66 = VECTOR('',#67,1.);
#67 = DIRECTION('',(1.,0.,0.));
#68 = ORIENTED_EDGE('',*,*,#69,.F.);
#69 = EDGE_CURVE('',#70,#62,#72,.T.);
#70 = VERTEX_POINT('',#71);
#71 = CARTESIAN_POINT('',(0.845,-2.622901895677E-16,-1.18125));
#72 = LINE('',#73,#74);
#73 = CARTESIAN_POINT('',(0.845,-2.622901895677E-16,-1.18125));
#74 = VECTOR('',#75,1.);
#75 = DIRECTION('',(-0.,1.,-2.E-16));
#76 = ORIENTED_EDGE('',*,*,#77,.F.);
#77 = EDGE_CURVE('',#52,#70,#78,.T.);
#78 = LINE('',#79,#80);
#79 = CARTESIAN_POINT('',(-0.845,-2.622901895677E-16,-1.18125));
#80 = VECTOR('',#81,1.);
#81 = DIRECTION('',(1.,0.,0.));
#82 = PLANE('',#83);
#83 = AXIS2_PLACEMENT_3D('',#84,#85,#86);
#84 = CARTESIAN_POINT('',(-0.845,-2.622901895677E-16,-1.18125));
#85 = DIRECTION('',(0.,-2.E-16,-1.));
#86 = DIRECTION('',(1.,0.,0.));
#87 = ADVANCED_FACE('',(#88),#113,.T.);
#88 = FACE_BOUND('',#89,.T.);
#89 = EDGE_LOOP('',(#90,#91,#99,#107));
#90 = ORIENTED_EDGE('',*,*,#69,.T.);
#91 = ORIENTED_EDGE('',*,*,#92,.T.);
#92 = EDGE_CURVE('',#62,#93,#95,.T.);
#93 = VERTEX_POINT('',#94);
#94 = CARTESIAN_POINT('',(0.845,0.101899027327,1.18125));
#95 = LINE('',#96,#97);
#96 = CARTESIAN_POINT('',(0.845,0.101899027327,-1.18125));
#97 = VECTOR('',#98,1.);
#98 = DIRECTION('',(0.,2.22044604925E-16,1.));
#99 = ORIENTED_EDGE('',*,*,#100,.F.);
#100 = EDGE_CURVE('',#101,#93,#103,.T.);
#101 = VERTEX_POINT('',#102);
#102 = CARTESIAN_POINT('',(0.845,2.622901895677E-16,1.18125));
#103 = LINE('',#104,#105);
#104 = CARTESIAN_POINT('',(0.845,2.622901895677E-16,1.18125));
#105 = VECTOR('',#106,1.);
#106 = DIRECTION('',(-0.,1.,-2.E-16));
#107 = ORIENTED_EDGE('',*,*,#108,.F.);
#108 = EDGE_CURVE('',#70,#101,#109,.T.);
#109 = LINE('',#110,#111);
#110 = CARTESIAN_POINT('',(0.845,-2.622901895677E-16,-1.18125));
#111 = VECTOR('',#112,1.);
#112 = DIRECTION('',(0.,2.22044604925E-16,1.));
#113 = PLANE('',#114);
#114 = AXIS2_PLACEMENT_3D('',#115,#116,#117);
#115 = CARTESIAN_POINT('',(0.845,-2.622901895677E-16,-1.18125));
#116 = DIRECTION('',(1.,0.,0.));
#117 = DIRECTION('',(0.,2.22044604925E-16,1.));
#118 = ADVANCED_FACE('',(#119),#144,.T.);
#119 = FACE_BOUND('',#120,.T.);
#120 = EDGE_LOOP('',(#121,#122,#130,#138));
#121 = ORIENTED_EDGE('',*,*,#100,.T.);
#122 = ORIENTED_EDGE('',*,*,#123,.T.);
#123 = EDGE_CURVE('',#93,#124,#126,.T.);
#124 = VERTEX_POINT('',#125);
#125 = CARTESIAN_POINT('',(-0.845,0.101899027327,1.18125));
#126 = LINE('',#127,#128);
#127 = CARTESIAN_POINT('',(0.845,0.101899027327,1.18125));
#128 = VECTOR('',#129,1.);
#129 = DIRECTION('',(-1.,0.,0.));
#130 = ORIENTED_EDGE('',*,*,#131,.F.);
#131 = EDGE_CURVE('',#132,#124,#134,.T.);
#132 = VERTEX_POINT('',#133);
#133 = CARTESIAN_POINT('',(-0.845,2.622901895677E-16,1.18125));
#134 = LINE('',#135,#136);
#135 = CARTESIAN_POINT('',(-0.845,2.622901895677E-16,1.18125));
#136 = VECTOR('',#137,1.);
#137 = DIRECTION('',(-0.,1.,-2.E-16));
#138 = ORIENTED_EDGE('',*,*,#139,.F.);
#139 = EDGE_CURVE('',#101,#132,#140,.T.);
#140 = LINE('',#141,#142);
#141 = CARTESIAN_POINT('',(0.845,2.622901895677E-16,1.18125));
#142 = VECTOR('',#143,1.);
#143 = DIRECTION('',(-1.,0.,0.));
#144 = PLANE('',#145);
#145 = AXIS2_PLACEMENT_3D('',#146,#147,#148);
#146 = CARTESIAN_POINT('',(0.845,2.622901895677E-16,1.18125));
#147 = DIRECTION('',(0.,2.E-16,1.));
#148 = DIRECTION('',(-1.,-0.,0.));
#149 = ADVANCED_FACE('',(#150),#166,.T.);
#150 = FACE_BOUND('',#151,.T.);
#151 = EDGE_LOOP('',(#152,#153,#159,#160));
#152 = ORIENTED_EDGE('',*,*,#131,.T.);
#153 = ORIENTED_EDGE('',*,*,#154,.T.);
#154 = EDGE_CURVE('',#124,#54,#155,.T.);
#155 = LINE('',#156,#157);
#156 = CARTESIAN_POINT('',(-0.845,0.101899027327,1.18125));
#157 = VECTOR('',#158,1.);
#158 = DIRECTION('',(0.,-2.22044604925E-16,-1.));
#159 = ORIENTED_EDGE('',*,*,#51,.F.);
#160 = ORIENTED_EDGE('',*,*,#161,.F.);
#161 = EDGE_CURVE('',#132,#52,#162,.T.);
#162 = LINE('',#163,#164);
#163 = CARTESIAN_POINT('',(-0.845,2.622901895677E-16,1.18125));
#164 = VECTOR('',#165,1.);
#165 = DIRECTION('',(0.,-2.22044604925E-16,-1.));
#166 = PLANE('',#167);
#167 = AXIS2_PLACEMENT_3D('',#168,#169,#170);
#168 = CARTESIAN_POINT('',(-0.845,2.622901895677E-16,1.18125));
#169 = DIRECTION('',(-1.,-0.,0.));
#170 = DIRECTION('',(0.,-2.22044604925E-16,-1.));
#171 = ADVANCED_FACE('',(#172),#178,.F.);
#172 = FACE_BOUND('',#173,.T.);
#173 = EDGE_LOOP('',(#174,#175,#176,#177));
#174 = ORIENTED_EDGE('',*,*,#77,.T.);
#175 = ORIENTED_EDGE('',*,*,#108,.T.);
#176 = ORIENTED_EDGE('',*,*,#139,.T.);
#177 = ORIENTED_EDGE('',*,*,#161,.T.);
#178 = PLANE('',#179);
#179 = AXIS2_PLACEMENT_3D('',#180,#181,#182);
#180 = CARTESIAN_POINT('',(0.,0.,0.));
#181 = DIRECTION('',(0.,1.,0.));
#182 = DIRECTION('',(0.,0.,1.));
#183 = ADVANCED_FACE('',(#184),#190,.T.);
#184 = FACE_BOUND('',#185,.F.);
#185 = EDGE_LOOP('',(#186,#187,#188,#189));
#186 = ORIENTED_EDGE('',*,*,#61,.T.);
#187 = ORIENTED_EDGE('',*,*,#92,.T.);
#188 = ORIENTED_EDGE('',*,*,#123,.T.);
#189 = ORIENTED_EDGE('',*,*,#154,.T.);
#190 = PLANE('',#191);
#191 = AXIS2_PLACEMENT_3D('',#192,#193,#194);
#192 = CARTESIAN_POINT('',(0.,0.101899027327,-2.775557561563E-17));
#193 = DIRECTION('',(0.,1.,0.));
#194 = DIRECTION('',(0.,0.,1.));
#195 = ( GEOMETRIC_REPRESENTATION_CONTEXT(3) 
GLOBAL_UNCERTAINTY_ASSIGNED_CONTEXT((#199)) GLOBAL_UNIT_ASSIGNED_CONTEXT
((#196,#197,#198)) REPRESENTATION_CONTEXT('Context #1',
  '3D Context with UNIT and UNCERTAINTY') );
#196 = ( LENGTH_UNIT() NAMED_UNIT(*) SI_UNIT(.MILLI.,.METRE.) );
#197 = ( NAMED_UNIT(*) PLANE_ANGLE_UNIT() SI_UNIT($,.RADIAN.) );
#198 = ( NAMED_UNIT(*) SI_UNIT($,.STERADIAN.) SOLID_ANGLE_UNIT() );
#199 = UNCERTAINTY_MEASURE_WITH_UNIT(LENGTH_MEASURE(1.E-07),#196,
  'distance_accuracy_value','confusion accuracy');
#200 = CONTEXT_DEPENDENT_SHAPE_REPRESENTATION(#201,#203);
#201 = ( REPRESENTATION_RELATIONSHIP('','',#44,#10) 
REPRESENTATION_RELATIONSHIP_WITH_TRANSFORMATION(#202) 
SHAPE_REPRESENTATION_RELATIONSHIP() );
#202 = ITEM_DEFINED_TRANSFORMATION('','',#11,#15);
#203 = PRODUCT_DEFINITION_SHAPE('Placement','Placement of an item',#204
  );
#204 = NEXT_ASSEMBLY_USAGE_OCCURRENCE('2778','Body002','',#5,#39,$);
#205 = PRODUCT_RELATED_PRODUCT_CATEGORY('part',$,(#41));
#206 = SHAPE_DEFINITION_REPRESENTATION(#207,#213);
#207 = PRODUCT_DEFINITION_SHAPE('','',#208);
#208 = PRODUCT_DEFINITION('design','',#209,#212);
#209 = PRODUCT_DEFINITION_FORMATION('','',#210);
#210 = PRODUCT('Array001','Array001','',(#211));
#211 = PRODUCT_CONTEXT('',#2,'mechanical');
#212 = PRODUCT_DEFINITION_CONTEXT('part definition',#2,'design');
#213 = SHAPE_REPRESENTATION('',(#11,#214,#218,#222,#226),#230);
#214 = AXIS2_PLACEMENT_3D('',#215,#216,#217);
#215 = CARTESIAN_POINT('',(0.,0.,0.975));
#216 = DIRECTION('',(0.,0.,1.));
#217 = DIRECTION('',(1.,0.,0.));
#218 = AXIS2_PLACEMENT_3D('',#219,#220,#221);
#219 = CARTESIAN_POINT('',(0.,0.,0.325));
#220 = DIRECTION('',(0.,0.,1.));
#221 = DIRECTION('',(1.,0.,0.));
#222 = AXIS2_PLACEMENT_3D('',#223,#224,#225);
#223 = CARTESIAN_POINT('',(0.,0.,-0.325));
#224 = DIRECTION('',(0.,0.,1.));
#225 = DIRECTION('',(1.,0.,0.));
#226 = AXIS2_PLACEMENT_3D('',#227,#228,#229);
#227 = CARTESIAN_POINT('',(0.,0.,-0.975));
#228 = DIRECTION('',(0.,0.,1.));
#229 = DIRECTION('',(1.,0.,0.));
#230 = ( GEOMETRIC_REPRESENTATION_CONTEXT(3) 
GLOBAL_UNCERTAINTY_ASSIGNED_CONTEXT((#234)) GLOBAL_UNIT_ASSIGNED_CONTEXT
((#231,#232,#233)) REPRESENTATION_CONTEXT('Context #1',
  '3D Context with UNIT and UNCERTAINTY') );
#231 = ( LENGTH_UNIT() NAMED_UNIT(*) SI_UNIT(.MILLI.,.METRE.) );
#232 = ( NAMED_UNIT(*) PLANE_ANGLE_UNIT() SI_UNIT($,.RADIAN.) );
#233 = ( NAMED_UNIT(*) SI_UNIT($,.STERADIAN.) SOLID_ANGLE_UNIT() );
#234 = UNCERTAINTY_MEASURE_WITH_UNIT(LENGTH_MEASURE(1.E-07),#231,
  'distance_accuracy_value','confusion accuracy');
#235 = CONTEXT_DEPENDENT_SHAPE_REPRESENTATION(#236,#238);
#236 = ( REPRESENTATION_RELATIONSHIP('','',#213,#10) 
REPRESENTATION_RELATIONSHIP_WITH_TRANSFORMATION(#237) 
SHAPE_REPRESENTATION_RELATIONSHIP() );
#237 = ITEM_DEFINED_TRANSFORMATION('','',#11,#19);
#238 = PRODUCT_DEFINITION_SHAPE('Placement','Placement of an item',#239
  );
#239 = NEXT_ASSEMBLY_USAGE_OCCURRENCE('2783','Array001','',#5,#208,$);
#240 = PRODUCT_RELATED_PRODUCT_CATEGORY('part',$,(#210));
#241 = SHAPE_DEFINITION_REPRESENTATION(#242,#248);
#242 = PRODUCT_DEFINITION_SHAPE('','',#243);
#243 = PRODUCT_DEFINITION('design','',#244,#247);
#244 = PRODUCT_DEFINITION_FORMATION('','',#245);
#245 = PRODUCT('Body001','Body001','',(#246));
#246 = PRODUCT_CONTEXT('',#2,'mechanical');
#247 = PRODUCT_DEFINITION_CONTEXT('part definition',#2,'design');
#248 = ADVANCED_BREP_SHAPE_REPRESENTATION('',(#11,#249),#531);
#249 = MANIFOLD_SOLID_BREP('',#250);
#250 = CLOSED_SHELL('',(#251,#291,#322,#353,#384,#415,#446,#477,#499,
    #515));
#251 = ADVANCED_FACE('',(#252),#286,.F.);
#252 = FACE_BOUND('',#253,.F.);
#253 = EDGE_LOOP('',(#254,#264,#272,#280));
#254 = ORIENTED_EDGE('',*,*,#255,.T.);
#255 = EDGE_CURVE('',#256,#258,#260,.T.);
#256 = VERTEX_POINT('',#257);
#257 = CARTESIAN_POINT('',(1.5,0.523449513664,-0.1525));
#258 = VERTEX_POINT('',#259);
#259 = CARTESIAN_POINT('',(1.5,0.523449513664,0.1525));
#260 = LINE('',#261,#262);
#261 = CARTESIAN_POINT('',(1.5,0.523449513664,-0.1525));
#262 = VECTOR('',#263,1.);
#263 = DIRECTION('',(0.,0.,1.));
#264 = ORIENTED_EDGE('',*,*,#265,.T.);
#265 = EDGE_CURVE('',#258,#266,#268,.T.);
#266 = VERTEX_POINT('',#267);
#267 = CARTESIAN_POINT('',(1.6,0.523449513664,0.1525));
#268 = LINE('',#269,#270);
#269 = CARTESIAN_POINT('',(1.5,0.523449513664,0.1525));
#270 = VECTOR('',#271,1.);
#271 = DIRECTION('',(1.,0.,0.));
#272 = ORIENTED_EDGE('',*,*,#273,.F.);
#273 = EDGE_CURVE('',#274,#266,#276,.T.);
#274 = VERTEX_POINT('',#275);
#275 = CARTESIAN_POINT('',(1.6,0.523449513664,-0.1525));
#276 = LINE('',#277,#278);
#277 = CARTESIAN_POINT('',(1.6,0.523449513664,-0.1525));
#278 = VECTOR('',#279,1.);
#279 = DIRECTION('',(0.,0.,1.));
#280 = ORIENTED_EDGE('',*,*,#281,.F.);
#281 = EDGE_CURVE('',#256,#274,#282,.T.);
#282 = LINE('',#283,#284);
#283 = CARTESIAN_POINT('',(1.5,0.523449513664,-0.1525));
#284 = VECTOR('',#285,1.);
#285 = DIRECTION('',(1.,0.,0.));
#286 = PLANE('',#287);
#287 = AXIS2_PLACEMENT_3D('',#288,#289,#290);
#288 = CARTESIAN_POINT('',(1.5,0.523449513664,-0.1525));
#289 = DIRECTION('',(0.,1.,0.));
#290 = DIRECTION('',(1.,0.,0.));
#291 = ADVANCED_FACE('',(#292),#317,.F.);
#292 = FACE_BOUND('',#293,.F.);
#293 = EDGE_LOOP('',(#294,#295,#303,#311));
#294 = ORIENTED_EDGE('',*,*,#273,.T.);
#295 = ORIENTED_EDGE('',*,*,#296,.T.);
#296 = EDGE_CURVE('',#266,#297,#299,.T.);
#297 = VERTEX_POINT('',#298);
#298 = CARTESIAN_POINT('',(1.9175,0.,0.1525));
#299 = LINE('',#300,#301);
#300 = CARTESIAN_POINT('',(1.6,0.523449513664,0.1525));
#301 = VECTOR('',#302,1.);
#302 = DIRECTION('',(0.518609739973,-0.855011074551,0.));
#303 = ORIENTED_EDGE('',*,*,#304,.F.);
#304 = EDGE_CURVE('',#305,#297,#307,.T.);
#305 = VERTEX_POINT('',#306);
#306 = CARTESIAN_POINT('',(1.9175,0.,-0.1525));
#307 = LINE('',#308,#309);
#308 = CARTESIAN_POINT('',(1.9175,0.,-0.1525));
#309 = VECTOR('',#310,1.);
#310 = DIRECTION('',(0.,0.,1.));
#311 = ORIENTED_EDGE('',*,*,#312,.F.);
#312 = EDGE_CURVE('',#274,#305,#313,.T.);
#313 = LINE('',#314,#315);
#314 = CARTESIAN_POINT('',(1.6,0.523449513664,-0.1525));
#315 = VECTOR('',#316,1.);
#316 = DIRECTION('',(0.518609739973,-0.855011074551,0.));
#317 = PLANE('',#318);
#318 = AXIS2_PLACEMENT_3D('',#319,#320,#321);
#319 = CARTESIAN_POINT('',(1.6,0.523449513664,-0.1525));
#320 = DIRECTION('',(0.855011074551,0.518609739973,0.));
#321 = DIRECTION('',(0.518609739973,-0.855011074551,0.));
#322 = ADVANCED_FACE('',(#323),#348,.F.);
#323 = FACE_BOUND('',#324,.F.);
#324 = EDGE_LOOP('',(#325,#326,#334,#342));
#325 = ORIENTED_EDGE('',*,*,#304,.T.);
#326 = ORIENTED_EDGE('',*,*,#327,.T.);
#327 = EDGE_CURVE('',#297,#328,#330,.T.);
#328 = VERTEX_POINT('',#329);
#329 = CARTESIAN_POINT('',(2.4525,0.,0.1525));
#330 = LINE('',#331,#332);
#331 = CARTESIAN_POINT('',(1.9175,0.,0.1525));
#332 = VECTOR('',#333,1.);
#333 = DIRECTION('',(1.,0.,0.));
#334 = ORIENTED_EDGE('',*,*,#335,.F.);
#335 = EDGE_CURVE('',#336,#328,#338,.T.);
#336 = VERTEX_POINT('',#337);
#337 = CARTESIAN_POINT('',(2.4525,0.,-0.1525));
#338 = LINE('',#339,#340);
#339 = CARTESIAN_POINT('',(2.4525,0.,-0.1525));
#340 = VECTOR('',#341,1.);
#341 = DIRECTION('',(0.,0.,1.));
#342 = ORIENTED_EDGE('',*,*,#343,.F.);
#343 = EDGE_CURVE('',#305,#336,#344,.T.);
#344 = LINE('',#345,#346);
#345 = CARTESIAN_POINT('',(1.9175,0.,-0.1525));
#346 = VECTOR('',#347,1.);
#347 = DIRECTION('',(1.,0.,0.));
#348 = PLANE('',#349);
#349 = AXIS2_PLACEMENT_3D('',#350,#351,#352);
#350 = CARTESIAN_POINT('',(1.9175,0.,-0.1525));
#351 = DIRECTION('',(0.,1.,0.));
#352 = DIRECTION('',(1.,0.,0.));
#353 = ADVANCED_FACE('',(#354),#379,.F.);
#354 = FACE_BOUND('',#355,.F.);
#355 = EDGE_LOOP('',(#356,#357,#365,#373));
#356 = ORIENTED_EDGE('',*,*,#335,.T.);
#357 = ORIENTED_EDGE('',*,*,#358,.T.);
#358 = EDGE_CURVE('',#328,#359,#361,.T.);
#359 = VERTEX_POINT('',#360);
#360 = CARTESIAN_POINT('',(2.4525,0.155,0.1525));
#361 = LINE('',#362,#363);
#362 = CARTESIAN_POINT('',(2.4525,0.,0.1525));
#363 = VECTOR('',#364,1.);
#364 = DIRECTION('',(0.,1.,0.));
#365 = ORIENTED_EDGE('',*,*,#366,.F.);
#366 = EDGE_CURVE('',#367,#359,#369,.T.);
#367 = VERTEX_POINT('',#368);
#368 = CARTESIAN_POINT('',(2.4525,0.155,-0.1525));
#369 = LINE('',#370,#371);
#370 = CARTESIAN_POINT('',(2.4525,0.155,-0.1525));
#371 = VECTOR('',#372,1.);
#372 = DIRECTION('',(0.,0.,1.));
#373 = ORIENTED_EDGE('',*,*,#374,.F.);
#374 = EDGE_CURVE('',#336,#367,#375,.T.);
#375 = LINE('',#376,#377);
#376 = CARTESIAN_POINT('',(2.4525,0.,-0.1525));
#377 = VECTOR('',#378,1.);
#378 = DIRECTION('',(0.,1.,0.));
#379 = PLANE('',#380);
#380 = AXIS2_PLACEMENT_3D('',#381,#382,#383);
#381 = CARTESIAN_POINT('',(2.4525,0.,-0.1525));
#382 = DIRECTION('',(-1.,0.,0.));
#383 = DIRECTION('',(0.,1.,0.));
#384 = ADVANCED_FACE('',(#385),#410,.F.);
#385 = FACE_BOUND('',#386,.F.);
#386 = EDGE_LOOP('',(#387,#388,#396,#404));
#387 = ORIENTED_EDGE('',*,*,#366,.T.);
#388 = ORIENTED_EDGE('',*,*,#389,.T.);
#389 = EDGE_CURVE('',#359,#390,#392,.T.);
#390 = VERTEX_POINT('',#391);
#391 = CARTESIAN_POINT('',(2.004768448962,0.155,0.1525));
#392 = LINE('',#393,#394);
#393 = CARTESIAN_POINT('',(2.4525,0.155,0.1525));
#394 = VECTOR('',#395,1.);
#395 = DIRECTION('',(-1.,0.,0.));
#396 = ORIENTED_EDGE('',*,*,#397,.F.);
#397 = EDGE_CURVE('',#398,#390,#400,.T.);
#398 = VERTEX_POINT('',#399);
#399 = CARTESIAN_POINT('',(2.004768448962,0.155,-0.1525));
#400 = LINE('',#401,#402);
#401 = CARTESIAN_POINT('',(2.004768448962,0.155,-0.1525));
#402 = VECTOR('',#403,1.);
#403 = DIRECTION('',(0.,0.,1.));
#404 = ORIENTED_EDGE('',*,*,#405,.F.);
#405 = EDGE_CURVE('',#367,#398,#406,.T.);
#406 = LINE('',#407,#408);
#407 = CARTESIAN_POINT('',(2.4525,0.155,-0.1525));
#408 = VECTOR('',#409,1.);
#409 = DIRECTION('',(-1.,0.,0.));
#410 = PLANE('',#411);
#411 = AXIS2_PLACEMENT_3D('',#412,#413,#414);
#412 = CARTESIAN_POINT('',(2.4525,0.155,-0.1525));
#413 = DIRECTION('',(0.,-1.,0.));
#414 = DIRECTION('',(-1.,0.,0.));
#415 = ADVANCED_FACE('',(#416),#441,.F.);
#416 = FACE_BOUND('',#417,.F.);
#417 = EDGE_LOOP('',(#418,#419,#427,#435));
#418 = ORIENTED_EDGE('',*,*,#397,.T.);
#419 = ORIENTED_EDGE('',*,*,#420,.T.);
#420 = EDGE_CURVE('',#390,#421,#423,.T.);
#421 = VERTEX_POINT('',#422);
#422 = CARTESIAN_POINT('',(1.687268448962,0.678449513664,0.1525));
#423 = LINE('',#424,#425);
#424 = CARTESIAN_POINT('',(2.004768448962,0.155,0.1525));
#425 = VECTOR('',#426,1.);
#426 = DIRECTION('',(-0.518609739973,0.855011074551,0.));
#427 = ORIENTED_EDGE('',*,*,#428,.F.);
#428 = EDGE_CURVE('',#429,#421,#431,.T.);
#429 = VERTEX_POINT('',#430);
#430 = CARTESIAN_POINT('',(1.687268448962,0.678449513664,-0.1525));
#431 = LINE('',#432,#433);
#432 = CARTESIAN_POINT('',(1.687268448962,0.678449513664,-0.1525));
#433 = VECTOR('',#434,1.);
#434 = DIRECTION('',(0.,0.,1.));
#435 = ORIENTED_EDGE('',*,*,#436,.F.);
#436 = EDGE_CURVE('',#398,#429,#437,.T.);
#437 = LINE('',#438,#439);
#438 = CARTESIAN_POINT('',(2.004768448962,0.155,-0.1525));
#439 = VECTOR('',#440,1.);
#440 = DIRECTION('',(-0.518609739973,0.855011074551,0.));
#441 = PLANE('',#442);
#442 = AXIS2_PLACEMENT_3D('',#443,#444,#445);
#443 = CARTESIAN_POINT('',(2.004768448962,0.155,-0.1525));
#444 = DIRECTION('',(-0.855011074551,-0.518609739973,0.));
#445 = DIRECTION('',(-0.518609739973,0.855011074551,0.));
#446 = ADVANCED_FACE('',(#447),#472,.F.);
#447 = FACE_BOUND('',#448,.F.);
#448 = EDGE_LOOP('',(#449,#450,#458,#466));
#449 = ORIENTED_EDGE('',*,*,#428,.T.);
#450 = ORIENTED_EDGE('',*,*,#451,.T.);
#451 = EDGE_CURVE('',#421,#452,#454,.T.);
#452 = VERTEX_POINT('',#453);
#453 = CARTESIAN_POINT('',(1.5,0.678449513664,0.1525));
#454 = LINE('',#455,#456);
#455 = CARTESIAN_POINT('',(1.687268448962,0.678449513664,0.1525));
#456 = VECTOR('',#457,1.);
#457 = DIRECTION('',(-1.,0.,0.));
#458 = ORIENTED_EDGE('',*,*,#459,.F.);
#459 = EDGE_CURVE('',#460,#452,#462,.T.);
#460 = VERTEX_POINT('',#461);
#461 = CARTESIAN_POINT('',(1.5,0.678449513664,-0.1525));
#462 = LINE('',#463,#464);
#463 = CARTESIAN_POINT('',(1.5,0.678449513664,-0.1525));
#464 = VECTOR('',#465,1.);
#465 = DIRECTION('',(0.,0.,1.));
#466 = ORIENTED_EDGE('',*,*,#467,.F.);
#467 = EDGE_CURVE('',#429,#460,#468,.T.);
#468 = LINE('',#469,#470);
#469 = CARTESIAN_POINT('',(1.687268448962,0.678449513664,-0.1525));
#470 = VECTOR('',#471,1.);
#471 = DIRECTION('',(-1.,0.,0.));
#472 = PLANE('',#473);
#473 = AXIS2_PLACEMENT_3D('',#474,#475,#476);
#474 = CARTESIAN_POINT('',(1.687268448962,0.678449513664,-0.1525));
#475 = DIRECTION('',(0.,-1.,0.));
#476 = DIRECTION('',(-1.,0.,0.));
#477 = ADVANCED_FACE('',(#478),#494,.F.);
#478 = FACE_BOUND('',#479,.F.);
#479 = EDGE_LOOP('',(#480,#481,#487,#488));
#480 = ORIENTED_EDGE('',*,*,#459,.T.);
#481 = ORIENTED_EDGE('',*,*,#482,.T.);
#482 = EDGE_CURVE('',#452,#258,#483,.T.);
#483 = LINE('',#484,#485);
#484 = CARTESIAN_POINT('',(1.5,0.678449513664,0.1525));
#485 = VECTOR('',#486,1.);
#486 = DIRECTION('',(0.,-1.,0.));
#487 = ORIENTED_EDGE('',*,*,#255,.F.);
#488 = ORIENTED_EDGE('',*,*,#489,.F.);
#489 = EDGE_CURVE('',#460,#256,#490,.T.);
#490 = LINE('',#491,#492);
#491 = CARTESIAN_POINT('',(1.5,0.678449513664,-0.1525));
#492 = VECTOR('',#493,1.);
#493 = DIRECTION('',(0.,-1.,0.));
#494 = PLANE('',#495);
#495 = AXIS2_PLACEMENT_3D('',#496,#497,#498);
#496 = CARTESIAN_POINT('',(1.5,0.678449513664,-0.1525));
#497 = DIRECTION('',(1.,0.,0.));
#498 = DIRECTION('',(0.,-1.,0.));
#499 = ADVANCED_FACE('',(#500),#510,.F.);
#500 = FACE_BOUND('',#501,.F.);
#501 = EDGE_LOOP('',(#502,#503,#504,#505,#506,#507,#508,#509));
#502 = ORIENTED_EDGE('',*,*,#281,.T.);
#503 = ORIENTED_EDGE('',*,*,#312,.T.);
#504 = ORIENTED_EDGE('',*,*,#343,.T.);
#505 = ORIENTED_EDGE('',*,*,#374,.T.);
#506 = ORIENTED_EDGE('',*,*,#405,.T.);
#507 = ORIENTED_EDGE('',*,*,#436,.T.);
#508 = ORIENTED_EDGE('',*,*,#467,.T.);
#509 = ORIENTED_EDGE('',*,*,#489,.T.);
#510 = PLANE('',#511);
#511 = AXIS2_PLACEMENT_3D('',#512,#513,#514);
#512 = CARTESIAN_POINT('',(1.939707332326,0.27432027465,-0.1525));
#513 = DIRECTION('',(0.,0.,1.));
#514 = DIRECTION('',(1.,0.,0.));
#515 = ADVANCED_FACE('',(#516),#526,.T.);
#516 = FACE_BOUND('',#517,.T.);
#517 = EDGE_LOOP('',(#518,#519,#520,#521,#522,#523,#524,#525));
#518 = ORIENTED_EDGE('',*,*,#265,.T.);
#519 = ORIENTED_EDGE('',*,*,#296,.T.);
#520 = ORIENTED_EDGE('',*,*,#327,.T.);
#521 = ORIENTED_EDGE('',*,*,#358,.T.);
#522 = ORIENTED_EDGE('',*,*,#389,.T.);
#523 = ORIENTED_EDGE('',*,*,#420,.T.);
#524 = ORIENTED_EDGE('',*,*,#451,.T.);
#525 = ORIENTED_EDGE('',*,*,#482,.T.);
#526 = PLANE('',#527);
#527 = AXIS2_PLACEMENT_3D('',#528,#529,#530);
#528 = CARTESIAN_POINT('',(1.939707332326,0.27432027465,0.1525));
#529 = DIRECTION('',(0.,0.,1.));
#530 = DIRECTION('',(1.,0.,0.));
#531 = ( GEOMETRIC_REPRESENTATION_CONTEXT(3) 
GLOBAL_UNCERTAINTY_ASSIGNED_CONTEXT((#535)) GLOBAL_UNIT_ASSIGNED_CONTEXT
((#532,#533,#534)) REPRESENTATION_CONTEXT('Context #1',
  '3D Context with UNIT and UNCERTAINTY') );
#532 = ( LENGTH_UNIT() NAMED_UNIT(*) SI_UNIT(.MILLI.,.METRE.) );
#533 = ( NAMED_UNIT(*) PLANE_ANGLE_UNIT() SI_UNIT($,.RADIAN.) );
#534 = ( NAMED_UNIT(*) SI_UNIT($,.STERADIAN.) SOLID_ANGLE_UNIT() );
#535 = UNCERTAINTY_MEASURE_WITH_UNIT(LENGTH_MEASURE(1.E-07),#532,
  'distance_accuracy_value','confusion accuracy');
#536 = CONTEXT_DEPENDENT_SHAPE_REPRESENTATION(#537,#539);
#537 = ( REPRESENTATION_RELATIONSHIP('','',#248,#213) 
REPRESENTATION_RELATIONSHIP_WITH_TRANSFORMATION(#538) 
SHAPE_REPRESENTATION_RELATIONSHIP() );
#538 = ITEM_DEFINED_TRANSFORMATION('','',#11,#214);
#539 = PRODUCT_DEFINITION_SHAPE('Placement','Placement of an item',#540
  );
#540 = NEXT_ASSEMBLY_USAGE_OCCURRENCE('2779','0','',#208,#243,$);
#541 = PRODUCT_RELATED_PRODUCT_CATEGORY('part',$,(#245));
#542 = CONTEXT_DEPENDENT_SHAPE_REPRESENTATION(#543,#545);
#543 = ( REPRESENTATION_RELATIONSHIP('','',#248,#213) 
REPRESENTATION_RELATIONSHIP_WITH_TRANSFORMATION(#544) 
SHAPE_REPRESENTATION_RELATIONSHIP() );
#544 = ITEM_DEFINED_TRANSFORMATION('','',#11,#218);
#545 = PRODUCT_DEFINITION_SHAPE('Placement','Placement of an item',#546
  );
#546 = NEXT_ASSEMBLY_USAGE_OCCURRENCE('2780','1','',#208,#243,$);
#547 = CONTEXT_DEPENDENT_SHAPE_REPRESENTATION(#548,#550);
#548 = ( REPRESENTATION_RELATIONSHIP('','',#248,#213) 
REPRESENTATION_RELATIONSHIP_WITH_TRANSFORMATION(#549) 
SHAPE_REPRESENTATION_RELATIONSHIP() );
#549 = ITEM_DEFINED_TRANSFORMATION('','',#11,#222);
#550 = PRODUCT_DEFINITION_SHAPE('Placement','Placement of an item',#551
  );
#551 = NEXT_ASSEMBLY_USAGE_OCCURRENCE('2781','2','',#208,#243,$);
#552 = CONTEXT_DEPENDENT_SHAPE_REPRESENTATION(#553,#555);
#553 = ( REPRESENTATION_RELATIONSHIP('','',#248,#213) 
REPRESENTATION_RELATIONSHIP_WITH_TRANSFORMATION(#554) 
SHAPE_REPRESENTATION_RELATIONSHIP() );
#554 = ITEM_DEFINED_TRANSFORMATION('','',#11,#226);
#555 = PRODUCT_DEFINITION_SHAPE('Placement','Placement of an item',#556
  );
#556 = NEXT_ASSEMBLY_USAGE_OCCURRENCE('2782','3','',#208,#243,$);
#557 = SHAPE_DEFINITION_REPRESENTATION(#558,#564);
#558 = PRODUCT_DEFINITION_SHAPE('','',#559);
#559 = PRODUCT_DEFINITION('design','',#560,#563);
#560 = PRODUCT_DEFINITION_FORMATION('','',#561);
#561 = PRODUCT('Body','Body','',(#562));
#562 = PRODUCT_CONTEXT('',#2,'mechanical');
#563 = PRODUCT_DEFINITION_CONTEXT('part definition',#2,'design');
#564 = ADVANCED_BREP_SHAPE_REPRESENTATION('',(#11,#565),#907);
#565 = MANIFOLD_SOLID_BREP('',#566);
#566 = CLOSED_SHELL('',(#567,#607,#638,#669,#700,#731,#755,#779,#796,
    #818,#842,#866,#883,#895));
#567 = ADVANCED_FACE('',(#568),#602,.T.);
#568 = FACE_BOUND('',#569,.T.);
#569 = EDGE_LOOP('',(#570,#580,#588,#596));
#570 = ORIENTED_EDGE('',*,*,#571,.T.);
#571 = EDGE_CURVE('',#572,#574,#576,.T.);
#572 = VERTEX_POINT('',#573);
#573 = CARTESIAN_POINT('',(1.5,0.523449513664,1.5));
#574 = VERTEX_POINT('',#575);
#575 = CARTESIAN_POINT('',(1.5,0.523449513664,-1.5));
#576 = LINE('',#577,#578);
#577 = CARTESIAN_POINT('',(1.5,0.523449513664,4.402048305419));
#578 = VECTOR('',#579,1.);
#579 = DIRECTION('',(0.,0.,-1.));
#580 = ORIENTED_EDGE('',*,*,#581,.T.);
#581 = EDGE_CURVE('',#574,#582,#584,.T.);
#582 = VERTEX_POINT('',#583);
#583 = CARTESIAN_POINT('',(1.5,0.678449513664,-1.5));
#584 = LINE('',#585,#586);
#585 = CARTESIAN_POINT('',(1.5,-3.330669073875E-16,-1.5));
#586 = VECTOR('',#587,1.);
#587 = DIRECTION('',(0.,1.,-2.22044604925E-16));
#588 = ORIENTED_EDGE('',*,*,#589,.F.);
#589 = EDGE_CURVE('',#590,#582,#592,.T.);
#590 = VERTEX_POINT('',#591);
#591 = CARTESIAN_POINT('',(1.5,0.678449513664,1.5));
#592 = LINE('',#593,#594);
#593 = CARTESIAN_POINT('',(1.5,0.678449513664,4.402048305419));
#594 = VECTOR('',#595,1.);
#595 = DIRECTION('',(0.,0.,-1.));
#596 = ORIENTED_EDGE('',*,*,#597,.F.);
#597 = EDGE_CURVE('',#572,#590,#598,.T.);
#598 = LINE('',#599,#600);
#599 = CARTESIAN_POINT('',(1.5,3.330669073875E-16,1.5));
#600 = VECTOR('',#601,1.);
#601 = DIRECTION('',(0.,1.,-2.22044604925E-16));
#602 = PLANE('',#603);
#603 = AXIS2_PLACEMENT_3D('',#604,#605,#606);
#604 = CARTESIAN_POINT('',(1.5,-3.330669073875E-16,-1.5));
#605 = DIRECTION('',(1.,0.,0.));
#606 = DIRECTION('',(0.,2.22044604925E-16,1.));
#607 = ADVANCED_FACE('',(#608),#633,.T.);
#608 = FACE_BOUND('',#609,.T.);
#609 = EDGE_LOOP('',(#610,#611,#619,#627));
#610 = ORIENTED_EDGE('',*,*,#571,.F.);
#611 = ORIENTED_EDGE('',*,*,#612,.F.);
#612 = EDGE_CURVE('',#613,#572,#615,.T.);
#613 = VERTEX_POINT('',#614);
#614 = CARTESIAN_POINT('',(1.440754942781,0.101899027327,1.440754942781)
  );
#615 = LINE('',#616,#617);
#616 = CARTESIAN_POINT('',(1.497022823003,0.502265798604,1.497022823003)
  );
#617 = VECTOR('',#618,1.);
#618 = DIRECTION('',(0.137844537492,0.980814848464,0.137844537492));
#619 = ORIENTED_EDGE('',*,*,#620,.T.);
#620 = EDGE_CURVE('',#613,#621,#623,.T.);
#621 = VERTEX_POINT('',#622);
#622 = CARTESIAN_POINT('',(1.440754942781,0.101899027327,-1.440754942781
    ));
#623 = LINE('',#624,#625);
#624 = CARTESIAN_POINT('',(1.440754942781,0.101899027327,4.402048305419)
  );
#625 = VECTOR('',#626,1.);
#626 = DIRECTION('',(0.,0.,-1.));
#627 = ORIENTED_EDGE('',*,*,#628,.T.);
#628 = EDGE_CURVE('',#621,#574,#629,.T.);
#629 = LINE('',#630,#631);
#630 = CARTESIAN_POINT('',(1.413378990242,-9.289099649132E-02,
    -1.413378990242));
#631 = VECTOR('',#632,1.);
#632 = DIRECTION('',(0.137844537492,0.980814848464,-0.137844537492));
#633 = PLANE('',#634);
#634 = AXIS2_PLACEMENT_3D('',#635,#636,#637);
#635 = CARTESIAN_POINT('',(1.440754942781,0.101899027327,4.402048305419)
  );
#636 = DIRECTION('',(0.990268068742,-0.13917310096,0.));
#637 = DIRECTION('',(0.13917310096,0.990268068742,0.));
#638 = ADVANCED_FACE('',(#639),#664,.T.);
#639 = FACE_BOUND('',#640,.T.);
#640 = EDGE_LOOP('',(#641,#649,#650,#658));
#641 = ORIENTED_EDGE('',*,*,#642,.F.);
#642 = EDGE_CURVE('',#572,#643,#645,.T.);
#643 = VERTEX_POINT('',#644);
#644 = CARTESIAN_POINT('',(-1.5,0.523449513664,1.5));
#645 = LINE('',#646,#647);
#646 = CARTESIAN_POINT('',(4.402048305419,0.523449513664,1.5));
#647 = VECTOR('',#648,1.);
#648 = DIRECTION('',(-1.,0.,0.));
#649 = ORIENTED_EDGE('',*,*,#597,.T.);
#650 = ORIENTED_EDGE('',*,*,#651,.T.);
#651 = EDGE_CURVE('',#590,#652,#654,.T.);
#652 = VERTEX_POINT('',#653);
#653 = CARTESIAN_POINT('',(-1.5,0.678449513664,1.5));
#654 = LINE('',#655,#656);
#655 = CARTESIAN_POINT('',(4.402048305419,0.678449513664,1.5));
#656 = VECTOR('',#657,1.);
#657 = DIRECTION('',(-1.,0.,0.));
#658 = ORIENTED_EDGE('',*,*,#659,.F.);
#659 = EDGE_CURVE('',#643,#652,#660,.T.);
#660 = LINE('',#661,#662);
#661 = CARTESIAN_POINT('',(-1.5,3.330669073875E-16,1.5));
#662 = VECTOR('',#663,1.);
#663 = DIRECTION('',(0.,1.,-2.22044604925E-16));
#664 = PLANE('',#665);
#665 = AXIS2_PLACEMENT_3D('',#666,#667,#668);
#666 = CARTESIAN_POINT('',(1.5,3.330669073875E-16,1.5));
#667 = DIRECTION('',(0.,2.22044604925E-16,1.));
#668 = DIRECTION('',(-1.,0.,0.));
#669 = ADVANCED_FACE('',(#670),#695,.F.);
#670 = FACE_BOUND('',#671,.F.);
#671 = EDGE_LOOP('',(#672,#673,#681,#689));
#672 = ORIENTED_EDGE('',*,*,#589,.F.);
#673 = ORIENTED_EDGE('',*,*,#674,.F.);
#674 = EDGE_CURVE('',#675,#590,#677,.T.);
#675 = VERTEX_POINT('',#676);
#676 = CARTESIAN_POINT('',(1.440754942781,1.1,1.440754942781));
#677 = LINE('',#678,#679);
#678 = CARTESIAN_POINT('',(1.526082490495,0.492862950509,1.526082490495)
  );
#679 = VECTOR('',#680,1.);
#680 = DIRECTION('',(0.137844537492,-0.980814848464,0.137844537492));
#681 = ORIENTED_EDGE('',*,*,#682,.T.);
#682 = EDGE_CURVE('',#675,#683,#685,.T.);
#683 = VERTEX_POINT('',#684);
#684 = CARTESIAN_POINT('',(1.440754942781,1.1,-1.440754942781));
#685 = LINE('',#686,#687);
#686 = CARTESIAN_POINT('',(1.440754942781,1.1,4.402048305419));
#687 = VECTOR('',#688,1.);
#688 = DIRECTION('',(0.,0.,-1.));
#689 = ORIENTED_EDGE('',*,*,#690,.T.);
#690 = EDGE_CURVE('',#683,#582,#691,.T.);
#691 = LINE('',#692,#693);
#692 = CARTESIAN_POINT('',(1.442438657734,1.088019745605,-1.442438657734
    ));
#693 = VECTOR('',#694,1.);
#694 = DIRECTION('',(0.137844537492,-0.980814848464,-0.137844537492));
#695 = PLANE('',#696);
#696 = AXIS2_PLACEMENT_3D('',#697,#698,#699);
#697 = CARTESIAN_POINT('',(1.440754942781,1.1,4.402048305419));
#698 = DIRECTION('',(-0.990268068742,-0.13917310096,0.));
#699 = DIRECTION('',(0.13917310096,-0.990268068742,0.));
#700 = ADVANCED_FACE('',(#701),#726,.T.);
#701 = FACE_BOUND('',#702,.T.);
#702 = EDGE_LOOP('',(#703,#711,#719,#725));
#703 = ORIENTED_EDGE('',*,*,#704,.T.);
#704 = EDGE_CURVE('',#574,#705,#707,.T.);
#705 = VERTEX_POINT('',#706);
#706 = CARTESIAN_POINT('',(-1.5,0.523449513664,-1.5));
#707 = LINE('',#708,#709);
#708 = CARTESIAN_POINT('',(4.402048305419,0.523449513664,-1.5));
#709 = VECTOR('',#710,1.);
#710 = DIRECTION('',(-1.,0.,0.));
#711 = ORIENTED_EDGE('',*,*,#712,.T.);
#712 = EDGE_CURVE('',#705,#713,#715,.T.);
#713 = VERTEX_POINT('',#714);
#714 = CARTESIAN_POINT('',(-1.5,0.678449513664,-1.5));
#715 = LINE('',#716,#717);
#716 = CARTESIAN_POINT('',(-1.5,-3.330669073875E-16,-1.5));
#717 = VECTOR('',#718,1.);
#718 = DIRECTION('',(0.,1.,-2.22044604925E-16));
#719 = ORIENTED_EDGE('',*,*,#720,.F.);
#720 = EDGE_CURVE('',#582,#713,#721,.T.);
#721 = LINE('',#722,#723);
#722 = CARTESIAN_POINT('',(4.402048305419,0.678449513664,-1.5));
#723 = VECTOR('',#724,1.);
#724 = DIRECTION('',(-1.,0.,0.));
#725 = ORIENTED_EDGE('',*,*,#581,.F.);
#726 = PLANE('',#727);
#727 = AXIS2_PLACEMENT_3D('',#728,#729,#730);
#728 = CARTESIAN_POINT('',(-1.5,-3.330669073875E-16,-1.5));
#729 = DIRECTION('',(0.,-2.22044604925E-16,-1.));
#730 = DIRECTION('',(1.,0.,0.));
#731 = ADVANCED_FACE('',(#732),#750,.F.);
#732 = FACE_BOUND('',#733,.T.);
#733 = EDGE_LOOP('',(#734,#735,#743,#749));
#734 = ORIENTED_EDGE('',*,*,#628,.F.);
#735 = ORIENTED_EDGE('',*,*,#736,.T.);
#736 = EDGE_CURVE('',#621,#737,#739,.T.);
#737 = VERTEX_POINT('',#738);
#738 = CARTESIAN_POINT('',(-1.440754942781,0.101899027327,
    -1.440754942781));
#739 = LINE('',#740,#741);
#740 = CARTESIAN_POINT('',(4.402048305419,0.101899027327,-1.440754942781
    ));
#741 = VECTOR('',#742,1.);
#742 = DIRECTION('',(-1.,0.,0.));
#743 = ORIENTED_EDGE('',*,*,#744,.T.);
#744 = EDGE_CURVE('',#737,#705,#745,.T.);
#745 = LINE('',#746,#747);
#746 = CARTESIAN_POINT('',(-1.32973515748,-0.688047791587,-1.32973515748
    ));
#747 = VECTOR('',#748,1.);
#748 = DIRECTION('',(-0.137844537492,0.980814848464,-0.137844537492));
#749 = ORIENTED_EDGE('',*,*,#704,.F.);
#750 = PLANE('',#751);
#751 = AXIS2_PLACEMENT_3D('',#752,#753,#754);
#752 = CARTESIAN_POINT('',(4.402048305419,0.101899027327,-1.440754942781
    ));
#753 = DIRECTION('',(0.,0.13917310096,0.990268068742));
#754 = DIRECTION('',(0.,-0.990268068742,0.13917310096));
#755 = ADVANCED_FACE('',(#756),#774,.F.);
#756 = FACE_BOUND('',#757,.F.);
#757 = EDGE_LOOP('',(#758,#766,#767,#768));
#758 = ORIENTED_EDGE('',*,*,#759,.F.);
#759 = EDGE_CURVE('',#613,#760,#762,.T.);
#760 = VERTEX_POINT('',#761);
#761 = CARTESIAN_POINT('',(-1.440754942781,0.101899027327,1.440754942781
    ));
#762 = LINE('',#763,#764);
#763 = CARTESIAN_POINT('',(4.402048305419,0.101899027327,1.440754942781)
  );
#764 = VECTOR('',#765,1.);
#765 = DIRECTION('',(-1.,0.,0.));
#766 = ORIENTED_EDGE('',*,*,#620,.T.);
#767 = ORIENTED_EDGE('',*,*,#736,.T.);
#768 = ORIENTED_EDGE('',*,*,#769,.F.);
#769 = EDGE_CURVE('',#760,#737,#770,.T.);
#770 = LINE('',#771,#772);
#771 = CARTESIAN_POINT('',(-1.440754942781,0.101899027327,4.402048305419
    ));
#772 = VECTOR('',#773,1.);
#773 = DIRECTION('',(2.22044604925E-16,0.,-1.));
#774 = PLANE('',#775);
#775 = AXIS2_PLACEMENT_3D('',#776,#777,#778);
#776 = CARTESIAN_POINT('',(0.,0.101899027327,-2.775557561563E-17));
#777 = DIRECTION('',(0.,1.,0.));
#778 = DIRECTION('',(0.,0.,1.));
#779 = ADVANCED_FACE('',(#780),#791,.F.);
#780 = FACE_BOUND('',#781,.F.);
#781 = EDGE_LOOP('',(#782,#783,#784,#790));
#782 = ORIENTED_EDGE('',*,*,#612,.F.);
#783 = ORIENTED_EDGE('',*,*,#759,.T.);
#784 = ORIENTED_EDGE('',*,*,#785,.T.);
#785 = EDGE_CURVE('',#760,#643,#786,.T.);
#786 = LINE('',#787,#788);
#787 = CARTESIAN_POINT('',(-1.413378990242,-9.289099649132E-02,
    1.413378990242));
#788 = VECTOR('',#789,1.);
#789 = DIRECTION('',(-0.137844537492,0.980814848464,0.137844537492));
#790 = ORIENTED_EDGE('',*,*,#642,.F.);
#791 = PLANE('',#792);
#792 = AXIS2_PLACEMENT_3D('',#793,#794,#795);
#793 = CARTESIAN_POINT('',(4.402048305419,0.101899027327,1.440754942781)
  );
#794 = DIRECTION('',(0.,0.13917310096,-0.990268068742));
#795 = DIRECTION('',(0.,0.990268068742,0.13917310096));
#796 = ADVANCED_FACE('',(#797),#813,.T.);
#797 = FACE_BOUND('',#798,.T.);
#798 = EDGE_LOOP('',(#799,#805,#806,#812));
#799 = ORIENTED_EDGE('',*,*,#800,.F.);
#800 = EDGE_CURVE('',#643,#705,#801,.T.);
#801 = LINE('',#802,#803);
#802 = CARTESIAN_POINT('',(-1.5,0.523449513664,4.402048305419));
#803 = VECTOR('',#804,1.);
#804 = DIRECTION('',(2.22044604925E-16,0.,-1.));
#805 = ORIENTED_EDGE('',*,*,#659,.T.);
#806 = ORIENTED_EDGE('',*,*,#807,.T.);
#807 = EDGE_CURVE('',#652,#713,#808,.T.);
#808 = LINE('',#809,#810);
#809 = CARTESIAN_POINT('',(-1.5,0.678449513664,4.402048305419));
#810 = VECTOR('',#811,1.);
#811 = DIRECTION('',(2.22044604925E-16,0.,-1.));
#812 = ORIENTED_EDGE('',*,*,#712,.F.);
#813 = PLANE('',#814);
#814 = AXIS2_PLACEMENT_3D('',#815,#816,#817);
#815 = CARTESIAN_POINT('',(-1.5,3.330669073875E-16,1.5));
#816 = DIRECTION('',(-1.,0.,0.));
#817 = DIRECTION('',(0.,-2.22044604925E-16,-1.));
#818 = ADVANCED_FACE('',(#819),#837,.F.);
#819 = FACE_BOUND('',#820,.F.);
#820 = EDGE_LOOP('',(#821,#822,#823,#831));
#821 = ORIENTED_EDGE('',*,*,#674,.T.);
#822 = ORIENTED_EDGE('',*,*,#651,.T.);
#823 = ORIENTED_EDGE('',*,*,#824,.F.);
#824 = EDGE_CURVE('',#825,#652,#827,.T.);
#825 = VERTEX_POINT('',#826);
#826 = CARTESIAN_POINT('',(-1.440754942781,1.1,1.440754942781));
#827 = LINE('',#828,#829);
#828 = CARTESIAN_POINT('',(-1.442438657734,1.088019745605,1.442438657734
    ));
#829 = VECTOR('',#830,1.);
#830 = DIRECTION('',(-0.137844537492,-0.980814848464,0.137844537492));
#831 = ORIENTED_EDGE('',*,*,#832,.F.);
#832 = EDGE_CURVE('',#675,#825,#833,.T.);
#833 = LINE('',#834,#835);
#834 = CARTESIAN_POINT('',(4.402048305419,1.1,1.440754942781));
#835 = VECTOR('',#836,1.);
#836 = DIRECTION('',(-1.,0.,0.));
#837 = PLANE('',#838);
#838 = AXIS2_PLACEMENT_3D('',#839,#840,#841);
#839 = CARTESIAN_POINT('',(4.402048305419,0.678449513664,1.5));
#840 = DIRECTION('',(0.,-0.13917310096,-0.990268068742));
#841 = DIRECTION('',(0.,0.990268068742,-0.13917310096));
#842 = ADVANCED_FACE('',(#843),#861,.F.);
#843 = FACE_BOUND('',#844,.T.);
#844 = EDGE_LOOP('',(#845,#846,#847,#855));
#845 = ORIENTED_EDGE('',*,*,#690,.T.);
#846 = ORIENTED_EDGE('',*,*,#720,.T.);
#847 = ORIENTED_EDGE('',*,*,#848,.F.);
#848 = EDGE_CURVE('',#849,#713,#851,.T.);
#849 = VERTEX_POINT('',#850);
#850 = CARTESIAN_POINT('',(-1.440754942781,1.1,-1.440754942781));
#851 = LINE('',#852,#853);
#852 = CARTESIAN_POINT('',(-1.358794824972,1.683176540701,
    -1.358794824972));
#853 = VECTOR('',#854,1.);
#854 = DIRECTION('',(-0.137844537492,-0.980814848464,-0.137844537492));
#855 = ORIENTED_EDGE('',*,*,#856,.F.);
#856 = EDGE_CURVE('',#683,#849,#857,.T.);
#857 = LINE('',#858,#859);
#858 = CARTESIAN_POINT('',(4.402048305419,1.1,-1.440754942781));
#859 = VECTOR('',#860,1.);
#860 = DIRECTION('',(-1.,0.,0.));
#861 = PLANE('',#862);
#862 = AXIS2_PLACEMENT_3D('',#863,#864,#865);
#863 = CARTESIAN_POINT('',(4.402048305419,0.678449513664,-1.5));
#864 = DIRECTION('',(0.,-0.13917310096,0.990268068742));
#865 = DIRECTION('',(-0.,-0.990268068742,-0.13917310096));
#866 = ADVANCED_FACE('',(#867),#878,.T.);
#867 = FACE_BOUND('',#868,.T.);
#868 = EDGE_LOOP('',(#869,#870,#871,#872));
#869 = ORIENTED_EDGE('',*,*,#832,.F.);
#870 = ORIENTED_EDGE('',*,*,#682,.T.);
#871 = ORIENTED_EDGE('',*,*,#856,.T.);
#872 = ORIENTED_EDGE('',*,*,#873,.F.);
#873 = EDGE_CURVE('',#825,#849,#874,.T.);
#874 = LINE('',#875,#876);
#875 = CARTESIAN_POINT('',(-1.440754942781,1.1,4.402048305419));
#876 = VECTOR('',#877,1.);
#877 = DIRECTION('',(2.22044604925E-16,0.,-1.));
#878 = PLANE('',#879);
#879 = AXIS2_PLACEMENT_3D('',#880,#881,#882);
#880 = CARTESIAN_POINT('',(0.,1.1,-2.22044604925E-16));
#881 = DIRECTION('',(0.,1.,0.));
#882 = DIRECTION('',(0.,0.,1.));
#883 = ADVANCED_FACE('',(#884),#890,.T.);
#884 = FACE_BOUND('',#885,.F.);
#885 = EDGE_LOOP('',(#886,#887,#888,#889));
#886 = ORIENTED_EDGE('',*,*,#800,.F.);
#887 = ORIENTED_EDGE('',*,*,#785,.F.);
#888 = ORIENTED_EDGE('',*,*,#769,.T.);
#889 = ORIENTED_EDGE('',*,*,#744,.T.);
#890 = PLANE('',#891);
#891 = AXIS2_PLACEMENT_3D('',#892,#893,#894);
#892 = CARTESIAN_POINT('',(-1.440754942781,0.101899027327,4.402048305419
    ));
#893 = DIRECTION('',(-0.990268068742,-0.13917310096,-2.198836820936E-16)
  );
#894 = DIRECTION('',(0.13917310096,-0.990268068742,3.090263621887E-17));
#895 = ADVANCED_FACE('',(#896),#902,.F.);
#896 = FACE_BOUND('',#897,.T.);
#897 = EDGE_LOOP('',(#898,#899,#900,#901));
#898 = ORIENTED_EDGE('',*,*,#807,.F.);
#899 = ORIENTED_EDGE('',*,*,#824,.F.);
#900 = ORIENTED_EDGE('',*,*,#873,.T.);
#901 = ORIENTED_EDGE('',*,*,#848,.T.);
#902 = PLANE('',#903);
#903 = AXIS2_PLACEMENT_3D('',#904,#905,#906);
#904 = CARTESIAN_POINT('',(-1.440754942781,1.1,4.402048305419));
#905 = DIRECTION('',(0.990268068742,-0.13917310096,2.198836820936E-16));
#906 = DIRECTION('',(0.13917310096,0.990268068742,3.090263621887E-17));
#907 = ( GEOMETRIC_REPRESENTATION_CONTEXT(3) 
GLOBAL_UNCERTAINTY_ASSIGNED_CONTEXT((#911)) GLOBAL_UNIT_ASSIGNED_CONTEXT
((#908,#909,#910)) REPRESENTATION_CONTEXT('Context #1',
  '3D Context with UNIT and UNCERTAINTY') );
#908 = ( LENGTH_UNIT() NAMED_UNIT(*) SI_UNIT(.MILLI.,.METRE.) );
#909 = ( NAMED_UNIT(*) PLANE_ANGLE_UNIT() SI_UNIT($,.RADIAN.) );
#910 = ( NAMED_UNIT(*) SI_UNIT($,.STERADIAN.) SOLID_ANGLE_UNIT() );
#911 = UNCERTAINTY_MEASURE_WITH_UNIT(LENGTH_MEASURE(5.E-06),#908,
  'distance_accuracy_value','confusion accuracy');
#912 = CONTEXT_DEPENDENT_SHAPE_REPRESENTATION(#913,#915);
#913 = ( REPRESENTATION_RELATIONSHIP('','',#564,#10) 
REPRESENTATION_RELATIONSHIP_WITH_TRANSFORMATION(#914) 
SHAPE_REPRESENTATION_RELATIONSHIP() );
#914 = ITEM_DEFINED_TRANSFORMATION('','',#11,#23);
#915 = PRODUCT_DEFINITION_SHAPE('Placement','Placement of an item',#916
  );
#916 = NEXT_ASSEMBLY_USAGE_OCCURRENCE('2784','Body','',#5,#559,$);
#917 = PRODUCT_RELATED_PRODUCT_CATEGORY('part',$,(#561));
#918 = SHAPE_DEFINITION_REPRESENTATION(#919,#925);
#919 = PRODUCT_DEFINITION_SHAPE('','',#920);
#920 = PRODUCT_DEFINITION('design','',#921,#924);
#921 = PRODUCT_DEFINITION_FORMATION('','',#922);
#922 = PRODUCT('Array','Array','',(#923));
#923 = PRODUCT_CONTEXT('',#2,'mechanical');
#924 = PRODUCT_DEFINITION_CONTEXT('part definition',#2,'design');
#925 = SHAPE_REPRESENTATION('',(#11,#926,#930,#934,#938),#942);
#926 = AXIS2_PLACEMENT_3D('',#927,#928,#929);
#927 = CARTESIAN_POINT('',(0.,0.,0.));
#928 = DIRECTION('',(0.,0.,1.));
#929 = DIRECTION('',(1.,0.,0.));
#930 = AXIS2_PLACEMENT_3D('',#931,#932,#933);
#931 = CARTESIAN_POINT('',(0.,0.,-0.65));
#932 = DIRECTION('',(0.,0.,1.));
#933 = DIRECTION('',(1.,0.,0.));
#934 = AXIS2_PLACEMENT_3D('',#935,#936,#937);
#935 = CARTESIAN_POINT('',(0.,0.,-1.3));
#936 = DIRECTION('',(0.,0.,1.));
#937 = DIRECTION('',(1.,0.,0.));
#938 = AXIS2_PLACEMENT_3D('',#939,#940,#941);
#939 = CARTESIAN_POINT('',(0.,0.,-1.95));
#940 = DIRECTION('',(0.,0.,1.));
#941 = DIRECTION('',(1.,0.,0.));
#942 = ( GEOMETRIC_REPRESENTATION_CONTEXT(3) 
GLOBAL_UNCERTAINTY_ASSIGNED_CONTEXT((#946)) GLOBAL_UNIT_ASSIGNED_CONTEXT
((#943,#944,#945)) REPRESENTATION_CONTEXT('Context #1',
  '3D Context with UNIT and UNCERTAINTY') );
#943 = ( LENGTH_UNIT() NAMED_UNIT(*) SI_UNIT(.MILLI.,.METRE.) );
#944 = ( NAMED_UNIT(*) PLANE_ANGLE_UNIT() SI_UNIT($,.RADIAN.) );
#945 = ( NAMED_UNIT(*) SI_UNIT($,.STERADIAN.) SOLID_ANGLE_UNIT() );
#946 = UNCERTAINTY_MEASURE_WITH_UNIT(LENGTH_MEASURE(1.E-07),#943,
  'distance_accuracy_value','confusion accuracy');
#947 = CONTEXT_DEPENDENT_SHAPE_REPRESENTATION(#948,#950);
#948 = ( REPRESENTATION_RELATIONSHIP('','',#925,#10) 
REPRESENTATION_RELATIONSHIP_WITH_TRANSFORMATION(#949) 
SHAPE_REPRESENTATION_RELATIONSHIP() );
#949 = ITEM_DEFINED_TRANSFORMATION('','',#11,#27);
#950 = PRODUCT_DEFINITION_SHAPE('Placement','Placement of an item',#951
  );
#951 = NEXT_ASSEMBLY_USAGE_OCCURRENCE('2789','Array','',#5,#920,$);
#952 = PRODUCT_RELATED_PRODUCT_CATEGORY('part',$,(#922));
#953 = SHAPE_DEFINITION_REPRESENTATION(#954,#960);
#954 = PRODUCT_DEFINITION_SHAPE('','',#955);
#955 = PRODUCT_DEFINITION('design','',#956,#959);
#956 = PRODUCT_DEFINITION_FORMATION('','',#957);
#957 = PRODUCT('Body001 (Mirror #1)','Body001 (Mirror #1)','',(#958));
#958 = PRODUCT_CONTEXT('',#2,'mechanical');
#959 = PRODUCT_DEFINITION_CONTEXT('part definition',#2,'design');
#960 = ADVANCED_BREP_SHAPE_REPRESENTATION('',(#11,#961),#1243);
#961 = MANIFOLD_SOLID_BREP('',#962);
#962 = CLOSED_SHELL('',(#963,#1003,#1034,#1065,#1096,#1127,#1158,#1189,
    #1211,#1227));
#963 = ADVANCED_FACE('',(#964),#998,.F.);
#964 = FACE_BOUND('',#965,.T.);
#965 = EDGE_LOOP('',(#966,#976,#984,#992));
#966 = ORIENTED_EDGE('',*,*,#967,.T.);
#967 = EDGE_CURVE('',#968,#970,#972,.T.);
#968 = VERTEX_POINT('',#969);
#969 = CARTESIAN_POINT('',(-1.5,0.523449513664,0.8225));
#970 = VERTEX_POINT('',#971);
#971 = CARTESIAN_POINT('',(-1.5,0.523449513664,1.1275));
#972 = LINE('',#973,#974);
#973 = CARTESIAN_POINT('',(-1.5,0.523449513664,0.8225));
#974 = VECTOR('',#975,1.);
#975 = DIRECTION('',(-0.,-0.,1.));
#976 = ORIENTED_EDGE('',*,*,#977,.T.);
#977 = EDGE_CURVE('',#970,#978,#980,.T.);
#978 = VERTEX_POINT('',#979);
#979 = CARTESIAN_POINT('',(-1.6,0.523449513664,1.1275));
#980 = LINE('',#981,#982);
#981 = CARTESIAN_POINT('',(-1.5,0.523449513664,1.1275));
#982 = VECTOR('',#983,1.);
#983 = DIRECTION('',(-1.,-0.,-0.));
#984 = ORIENTED_EDGE('',*,*,#985,.F.);
#985 = EDGE_CURVE('',#986,#978,#988,.T.);
#986 = VERTEX_POINT('',#987);
#987 = CARTESIAN_POINT('',(-1.6,0.523449513664,0.8225));
#988 = LINE('',#989,#990);
#989 = CARTESIAN_POINT('',(-1.6,0.523449513664,0.8225));
#990 = VECTOR('',#991,1.);
#991 = DIRECTION('',(-0.,-0.,1.));
#992 = ORIENTED_EDGE('',*,*,#993,.F.);
#993 = EDGE_CURVE('',#968,#986,#994,.T.);
#994 = LINE('',#995,#996);
#995 = CARTESIAN_POINT('',(-1.5,0.523449513664,0.8225));
#996 = VECTOR('',#997,1.);
#997 = DIRECTION('',(-1.,-0.,-0.));
#998 = PLANE('',#999);
#999 = AXIS2_PLACEMENT_3D('',#1000,#1001,#1002);
#1000 = CARTESIAN_POINT('',(-1.5,0.523449513664,0.8225));
#1001 = DIRECTION('',(-0.,1.,-0.));
#1002 = DIRECTION('',(1.,0.,0.));
#1003 = ADVANCED_FACE('',(#1004),#1029,.F.);
#1004 = FACE_BOUND('',#1005,.T.);
#1005 = EDGE_LOOP('',(#1006,#1007,#1015,#1023));
#1006 = ORIENTED_EDGE('',*,*,#985,.T.);
#1007 = ORIENTED_EDGE('',*,*,#1008,.T.);
#1008 = EDGE_CURVE('',#978,#1009,#1011,.T.);
#1009 = VERTEX_POINT('',#1010);
#1010 = CARTESIAN_POINT('',(-1.9175,0.,1.1275));
#1011 = LINE('',#1012,#1013);
#1012 = CARTESIAN_POINT('',(-1.6,0.523449513664,1.1275));
#1013 = VECTOR('',#1014,1.);
#1014 = DIRECTION('',(-0.518609739973,-0.855011074551,-0.));
#1015 = ORIENTED_EDGE('',*,*,#1016,.F.);
#1016 = EDGE_CURVE('',#1017,#1009,#1019,.T.);
#1017 = VERTEX_POINT('',#1018);
#1018 = CARTESIAN_POINT('',(-1.9175,0.,0.8225));
#1019 = LINE('',#1020,#1021);
#1020 = CARTESIAN_POINT('',(-1.9175,0.,0.8225));
#1021 = VECTOR('',#1022,1.);
#1022 = DIRECTION('',(-0.,-0.,1.));
#1023 = ORIENTED_EDGE('',*,*,#1024,.F.);
#1024 = EDGE_CURVE('',#986,#1017,#1025,.T.);
#1025 = LINE('',#1026,#1027);
#1026 = CARTESIAN_POINT('',(-1.6,0.523449513664,0.8225));
#1027 = VECTOR('',#1028,1.);
#1028 = DIRECTION('',(-0.518609739973,-0.855011074551,-0.));
#1029 = PLANE('',#1030);
#1030 = AXIS2_PLACEMENT_3D('',#1031,#1032,#1033);
#1031 = CARTESIAN_POINT('',(-1.6,0.523449513664,0.8225));
#1032 = DIRECTION('',(-0.855011074551,0.518609739973,-0.));
#1033 = DIRECTION('',(0.518609739973,0.855011074551,0.));
#1034 = ADVANCED_FACE('',(#1035),#1060,.F.);
#1035 = FACE_BOUND('',#1036,.T.);
#1036 = EDGE_LOOP('',(#1037,#1038,#1046,#1054));
#1037 = ORIENTED_EDGE('',*,*,#1016,.T.);
#1038 = ORIENTED_EDGE('',*,*,#1039,.T.);
#1039 = EDGE_CURVE('',#1009,#1040,#1042,.T.);
#1040 = VERTEX_POINT('',#1041);
#1041 = CARTESIAN_POINT('',(-2.4525,0.,1.1275));
#1042 = LINE('',#1043,#1044);
#1043 = CARTESIAN_POINT('',(-1.9175,0.,1.1275));
#1044 = VECTOR('',#1045,1.);
#1045 = DIRECTION('',(-1.,-0.,-0.));
#1046 = ORIENTED_EDGE('',*,*,#1047,.F.);
#1047 = EDGE_CURVE('',#1048,#1040,#1050,.T.);
#1048 = VERTEX_POINT('',#1049);
#1049 = CARTESIAN_POINT('',(-2.4525,0.,0.8225));
#1050 = LINE('',#1051,#1052);
#1051 = CARTESIAN_POINT('',(-2.4525,0.,0.8225));
#1052 = VECTOR('',#1053,1.);
#1053 = DIRECTION('',(-0.,-0.,1.));
#1054 = ORIENTED_EDGE('',*,*,#1055,.F.);
#1055 = EDGE_CURVE('',#1017,#1048,#1056,.T.);
#1056 = LINE('',#1057,#1058);
#1057 = CARTESIAN_POINT('',(-1.9175,0.,0.8225));
#1058 = VECTOR('',#1059,1.);
#1059 = DIRECTION('',(-1.,-0.,-0.));
#1060 = PLANE('',#1061);
#1061 = AXIS2_PLACEMENT_3D('',#1062,#1063,#1064);
#1062 = CARTESIAN_POINT('',(-1.9175,0.,0.8225));
#1063 = DIRECTION('',(-0.,1.,-0.));
#1064 = DIRECTION('',(1.,0.,0.));
#1065 = ADVANCED_FACE('',(#1066),#1091,.F.);
#1066 = FACE_BOUND('',#1067,.T.);
#1067 = EDGE_LOOP('',(#1068,#1069,#1077,#1085));
#1068 = ORIENTED_EDGE('',*,*,#1047,.T.);
#1069 = ORIENTED_EDGE('',*,*,#1070,.T.);
#1070 = EDGE_CURVE('',#1040,#1071,#1073,.T.);
#1071 = VERTEX_POINT('',#1072);
#1072 = CARTESIAN_POINT('',(-2.4525,0.155,1.1275));
#1073 = LINE('',#1074,#1075);
#1074 = CARTESIAN_POINT('',(-2.4525,0.,1.1275));
#1075 = VECTOR('',#1076,1.);
#1076 = DIRECTION('',(0.,1.,0.));
#1077 = ORIENTED_EDGE('',*,*,#1078,.F.);
#1078 = EDGE_CURVE('',#1079,#1071,#1081,.T.);
#1079 = VERTEX_POINT('',#1080);
#1080 = CARTESIAN_POINT('',(-2.4525,0.155,0.8225));
#1081 = LINE('',#1082,#1083);
#1082 = CARTESIAN_POINT('',(-2.4525,0.155,0.8225));
#1083 = VECTOR('',#1084,1.);
#1084 = DIRECTION('',(-0.,-0.,1.));
#1085 = ORIENTED_EDGE('',*,*,#1086,.F.);
#1086 = EDGE_CURVE('',#1048,#1079,#1087,.T.);
#1087 = LINE('',#1088,#1089);
#1088 = CARTESIAN_POINT('',(-2.4525,0.,0.8225));
#1089 = VECTOR('',#1090,1.);
#1090 = DIRECTION('',(0.,1.,0.));
#1091 = PLANE('',#1092);
#1092 = AXIS2_PLACEMENT_3D('',#1093,#1094,#1095);
#1093 = CARTESIAN_POINT('',(-2.4525,0.,0.8225));
#1094 = DIRECTION('',(1.,-0.,-0.));
#1095 = DIRECTION('',(0.,-1.,0.));
#1096 = ADVANCED_FACE('',(#1097),#1122,.F.);
#1097 = FACE_BOUND('',#1098,.T.);
#1098 = EDGE_LOOP('',(#1099,#1100,#1108,#1116));
#1099 = ORIENTED_EDGE('',*,*,#1078,.T.);
#1100 = ORIENTED_EDGE('',*,*,#1101,.T.);
#1101 = EDGE_CURVE('',#1071,#1102,#1104,.T.);
#1102 = VERTEX_POINT('',#1103);
#1103 = CARTESIAN_POINT('',(-2.004768448962,0.155,1.1275));
#1104 = LINE('',#1105,#1106);
#1105 = CARTESIAN_POINT('',(-2.4525,0.155,1.1275));
#1106 = VECTOR('',#1107,1.);
#1107 = DIRECTION('',(1.,0.,0.));
#1108 = ORIENTED_EDGE('',*,*,#1109,.F.);
#1109 = EDGE_CURVE('',#1110,#1102,#1112,.T.);
#1110 = VERTEX_POINT('',#1111);
#1111 = CARTESIAN_POINT('',(-2.004768448962,0.155,0.8225));
#1112 = LINE('',#1113,#1114);
#1113 = CARTESIAN_POINT('',(-2.004768448962,0.155,0.8225));
#1114 = VECTOR('',#1115,1.);
#1115 = DIRECTION('',(-0.,-0.,1.));
#1116 = ORIENTED_EDGE('',*,*,#1117,.F.);
#1117 = EDGE_CURVE('',#1079,#1110,#1118,.T.);
#1118 = LINE('',#1119,#1120);
#1119 = CARTESIAN_POINT('',(-2.4525,0.155,0.8225));
#1120 = VECTOR('',#1121,1.);
#1121 = DIRECTION('',(1.,0.,0.));
#1122 = PLANE('',#1123);
#1123 = AXIS2_PLACEMENT_3D('',#1124,#1125,#1126);
#1124 = CARTESIAN_POINT('',(-2.4525,0.155,0.8225));
#1125 = DIRECTION('',(-0.,-1.,-0.));
#1126 = DIRECTION('',(-1.,0.,0.));
#1127 = ADVANCED_FACE('',(#1128),#1153,.F.);
#1128 = FACE_BOUND('',#1129,.T.);
#1129 = EDGE_LOOP('',(#1130,#1131,#1139,#1147));
#1130 = ORIENTED_EDGE('',*,*,#1109,.T.);
#1131 = ORIENTED_EDGE('',*,*,#1132,.T.);
#1132 = EDGE_CURVE('',#1102,#1133,#1135,.T.);
#1133 = VERTEX_POINT('',#1134);
#1134 = CARTESIAN_POINT('',(-1.687268448962,0.678449513664,1.1275));
#1135 = LINE('',#1136,#1137);
#1136 = CARTESIAN_POINT('',(-2.004768448962,0.155,1.1275));
#1137 = VECTOR('',#1138,1.);
#1138 = DIRECTION('',(0.518609739973,0.855011074551,0.));
#1139 = ORIENTED_EDGE('',*,*,#1140,.F.);
#1140 = EDGE_CURVE('',#1141,#1133,#1143,.T.);
#1141 = VERTEX_POINT('',#1142);
#1142 = CARTESIAN_POINT('',(-1.687268448962,0.678449513664,0.8225));
#1143 = LINE('',#1144,#1145);
#1144 = CARTESIAN_POINT('',(-1.687268448962,0.678449513664,0.8225));
#1145 = VECTOR('',#1146,1.);
#1146 = DIRECTION('',(-0.,-0.,1.));
#1147 = ORIENTED_EDGE('',*,*,#1148,.F.);
#1148 = EDGE_CURVE('',#1110,#1141,#1149,.T.);
#1149 = LINE('',#1150,#1151);
#1150 = CARTESIAN_POINT('',(-2.004768448962,0.155,0.8225));
#1151 = VECTOR('',#1152,1.);
#1152 = DIRECTION('',(0.518609739973,0.855011074551,0.));
#1153 = PLANE('',#1154);
#1154 = AXIS2_PLACEMENT_3D('',#1155,#1156,#1157);
#1155 = CARTESIAN_POINT('',(-2.004768448962,0.155,0.8225));
#1156 = DIRECTION('',(0.855011074551,-0.518609739973,0.));
#1157 = DIRECTION('',(-0.518609739973,-0.855011074551,0.));
#1158 = ADVANCED_FACE('',(#1159),#1184,.F.);
#1159 = FACE_BOUND('',#1160,.T.);
#1160 = EDGE_LOOP('',(#1161,#1162,#1170,#1178));
#1161 = ORIENTED_EDGE('',*,*,#1140,.T.);
#1162 = ORIENTED_EDGE('',*,*,#1163,.T.);
#1163 = EDGE_CURVE('',#1133,#1164,#1166,.T.);
#1164 = VERTEX_POINT('',#1165);
#1165 = CARTESIAN_POINT('',(-1.5,0.678449513664,1.1275));
#1166 = LINE('',#1167,#1168);
#1167 = CARTESIAN_POINT('',(-1.687268448962,0.678449513664,1.1275));
#1168 = VECTOR('',#1169,1.);
#1169 = DIRECTION('',(1.,0.,0.));
#1170 = ORIENTED_EDGE('',*,*,#1171,.F.);
#1171 = EDGE_CURVE('',#1172,#1164,#1174,.T.);
#1172 = VERTEX_POINT('',#1173);
#1173 = CARTESIAN_POINT('',(-1.5,0.678449513664,0.8225));
#1174 = LINE('',#1175,#1176);
#1175 = CARTESIAN_POINT('',(-1.5,0.678449513664,0.8225));
#1176 = VECTOR('',#1177,1.);
#1177 = DIRECTION('',(-0.,-0.,1.));
#1178 = ORIENTED_EDGE('',*,*,#1179,.F.);
#1179 = EDGE_CURVE('',#1141,#1172,#1180,.T.);
#1180 = LINE('',#1181,#1182);
#1181 = CARTESIAN_POINT('',(-1.687268448962,0.678449513664,0.8225));
#1182 = VECTOR('',#1183,1.);
#1183 = DIRECTION('',(1.,0.,0.));
#1184 = PLANE('',#1185);
#1185 = AXIS2_PLACEMENT_3D('',#1186,#1187,#1188);
#1186 = CARTESIAN_POINT('',(-1.687268448962,0.678449513664,0.8225));
#1187 = DIRECTION('',(-0.,-1.,-0.));
#1188 = DIRECTION('',(-1.,0.,0.));
#1189 = ADVANCED_FACE('',(#1190),#1206,.F.);
#1190 = FACE_BOUND('',#1191,.T.);
#1191 = EDGE_LOOP('',(#1192,#1193,#1199,#1200));
#1192 = ORIENTED_EDGE('',*,*,#1171,.T.);
#1193 = ORIENTED_EDGE('',*,*,#1194,.T.);
#1194 = EDGE_CURVE('',#1164,#970,#1195,.T.);
#1195 = LINE('',#1196,#1197);
#1196 = CARTESIAN_POINT('',(-1.5,0.678449513664,1.1275));
#1197 = VECTOR('',#1198,1.);
#1198 = DIRECTION('',(-0.,-1.,-0.));
#1199 = ORIENTED_EDGE('',*,*,#967,.F.);
#1200 = ORIENTED_EDGE('',*,*,#1201,.F.);
#1201 = EDGE_CURVE('',#1172,#968,#1202,.T.);
#1202 = LINE('',#1203,#1204);
#1203 = CARTESIAN_POINT('',(-1.5,0.678449513664,0.8225));
#1204 = VECTOR('',#1205,1.);
#1205 = DIRECTION('',(-0.,-1.,-0.));
#1206 = PLANE('',#1207);
#1207 = AXIS2_PLACEMENT_3D('',#1208,#1209,#1210);
#1208 = CARTESIAN_POINT('',(-1.5,0.678449513664,0.8225));
#1209 = DIRECTION('',(-1.,-0.,-0.));
#1210 = DIRECTION('',(0.,1.,0.));
#1211 = ADVANCED_FACE('',(#1212),#1222,.F.);
#1212 = FACE_BOUND('',#1213,.T.);
#1213 = EDGE_LOOP('',(#1214,#1215,#1216,#1217,#1218,#1219,#1220,#1221));
#1214 = ORIENTED_EDGE('',*,*,#993,.T.);
#1215 = ORIENTED_EDGE('',*,*,#1024,.T.);
#1216 = ORIENTED_EDGE('',*,*,#1055,.T.);
#1217 = ORIENTED_EDGE('',*,*,#1086,.T.);
#1218 = ORIENTED_EDGE('',*,*,#1117,.T.);
#1219 = ORIENTED_EDGE('',*,*,#1148,.T.);
#1220 = ORIENTED_EDGE('',*,*,#1179,.T.);
#1221 = ORIENTED_EDGE('',*,*,#1201,.T.);
#1222 = PLANE('',#1223);
#1223 = AXIS2_PLACEMENT_3D('',#1224,#1225,#1226);
#1224 = CARTESIAN_POINT('',(-1.939707332326,0.27432027465,0.8225));
#1225 = DIRECTION('',(0.,0.,1.));
#1226 = DIRECTION('',(1.,0.,0.));
#1227 = ADVANCED_FACE('',(#1228),#1238,.T.);
#1228 = FACE_BOUND('',#1229,.F.);
#1229 = EDGE_LOOP('',(#1230,#1231,#1232,#1233,#1234,#1235,#1236,#1237));
#1230 = ORIENTED_EDGE('',*,*,#977,.T.);
#1231 = ORIENTED_EDGE('',*,*,#1008,.T.);
#1232 = ORIENTED_EDGE('',*,*,#1039,.T.);
#1233 = ORIENTED_EDGE('',*,*,#1070,.T.);
#1234 = ORIENTED_EDGE('',*,*,#1101,.T.);
#1235 = ORIENTED_EDGE('',*,*,#1132,.T.);
#1236 = ORIENTED_EDGE('',*,*,#1163,.T.);
#1237 = ORIENTED_EDGE('',*,*,#1194,.T.);
#1238 = PLANE('',#1239);
#1239 = AXIS2_PLACEMENT_3D('',#1240,#1241,#1242);
#1240 = CARTESIAN_POINT('',(-1.939707332326,0.27432027465,1.1275));
#1241 = DIRECTION('',(0.,0.,1.));
#1242 = DIRECTION('',(1.,0.,0.));
#1243 = ( GEOMETRIC_REPRESENTATION_CONTEXT(3) 
GLOBAL_UNCERTAINTY_ASSIGNED_CONTEXT((#1247)) 
GLOBAL_UNIT_ASSIGNED_CONTEXT((#1244,#1245,#1246)) REPRESENTATION_CONTEXT
('Context #1','3D Context with UNIT and UNCERTAINTY') );
#1244 = ( LENGTH_UNIT() NAMED_UNIT(*) SI_UNIT(.MILLI.,.METRE.) );
#1245 = ( NAMED_UNIT(*) PLANE_ANGLE_UNIT() SI_UNIT($,.RADIAN.) );
#1246 = ( NAMED_UNIT(*) SI_UNIT($,.STERADIAN.) SOLID_ANGLE_UNIT() );
#1247 = UNCERTAINTY_MEASURE_WITH_UNIT(LENGTH_MEASURE(1.E-07),#1244,
  'distance_accuracy_value','confusion accuracy');
#1248 = CONTEXT_DEPENDENT_SHAPE_REPRESENTATION(#1249,#1251);
#1249 = ( REPRESENTATION_RELATIONSHIP('','',#960,#925) 
REPRESENTATION_RELATIONSHIP_WITH_TRANSFORMATION(#1250) 
SHAPE_REPRESENTATION_RELATIONSHIP() );
#1250 = ITEM_DEFINED_TRANSFORMATION('','',#11,#926);
#1251 = PRODUCT_DEFINITION_SHAPE('Placement','Placement of an item',
  #1252);
#1252 = NEXT_ASSEMBLY_USAGE_OCCURRENCE('2785','0','',#920,#955,$);
#1253 = PRODUCT_RELATED_PRODUCT_CATEGORY('part',$,(#957));
#1254 = CONTEXT_DEPENDENT_SHAPE_REPRESENTATION(#1255,#1257);
#1255 = ( REPRESENTATION_RELATIONSHIP('','',#960,#925) 
REPRESENTATION_RELATIONSHIP_WITH_TRANSFORMATION(#1256) 
SHAPE_REPRESENTATION_RELATIONSHIP() );
#1256 = ITEM_DEFINED_TRANSFORMATION('','',#11,#930);
#1257 = PRODUCT_DEFINITION_SHAPE('Placement','Placement of an item',
  #1258);
#1258 = NEXT_ASSEMBLY_USAGE_OCCURRENCE('2786','1','',#920,#955,$);
#1259 = CONTEXT_DEPENDENT_SHAPE_REPRESENTATION(#1260,#1262);
#1260 = ( REPRESENTATION_RELATIONSHIP('','',#960,#925) 
REPRESENTATION_RELATIONSHIP_WITH_TRANSFORMATION(#1261) 
SHAPE_REPRESENTATION_RELATIONSHIP() );
#1261 = ITEM_DEFINED_TRANSFORMATION('','',#11,#934);
#1262 = PRODUCT_DEFINITION_SHAPE('Placement','Placement of an item',
  #1263);
#1263 = NEXT_ASSEMBLY_USAGE_OCCURRENCE('2787','2','',#920,#955,$);
#1264 = CONTEXT_DEPENDENT_SHAPE_REPRESENTATION(#1265,#1267);
#1265 = ( REPRESENTATION_RELATIONSHIP('','',#960,#925) 
REPRESENTATION_RELATIONSHIP_WITH_TRANSFORMATION(#1266) 
SHAPE_REPRESENTATION_RELATIONSHIP() );
#1266 = ITEM_DEFINED_TRANSFORMATION('','',#11,#938);
#1267 = PRODUCT_DEFINITION_SHAPE('Placement','Placement of an item',
  #1268);
#1268 = NEXT_ASSEMBLY_USAGE_OCCURRENCE('2788','3','',#920,#955,$);
#1269 = MECHANICAL_DESIGN_GEOMETRIC_PRESENTATION_REPRESENTATION('',(
    #1270),#195);
#1270 = STYLED_ITEM('color',(#1271),#45);
#1271 = PRESENTATION_STYLE_ASSIGNMENT((#1272,#1278));
#1272 = SURFACE_STYLE_USAGE(.BOTH.,#1273);
#1273 = SURFACE_SIDE_STYLE('',(#1274));
#1274 = SURFACE_STYLE_FILL_AREA(#1275);
#1275 = FILL_AREA_STYLE('',(#1276));
#1276 = FILL_AREA_STYLE_COLOUR('',#1277);
#1277 = COLOUR_RGB('',0.800000010877,0.800000010877,0.800000010877);
#1278 = CURVE_STYLE('',#1279,POSITIVE_LENGTH_MEASURE(0.1),#1280);
#1279 = DRAUGHTING_PRE_DEFINED_CURVE_FONT('continuous');
#1280 = COLOUR_RGB('',9.803921802644E-02,9.803921802644E-02,
  9.803921802644E-02);
#1281 = MECHANICAL_DESIGN_GEOMETRIC_PRESENTATION_REPRESENTATION('',(
    #1282),#907);
#1282 = STYLED_ITEM('color',(#1283),#565);
#1283 = PRESENTATION_STYLE_ASSIGNMENT((#1284,#1290));
#1284 = SURFACE_STYLE_USAGE(.BOTH.,#1285);
#1285 = SURFACE_SIDE_STYLE('',(#1286));
#1286 = SURFACE_STYLE_FILL_AREA(#1287);
#1287 = FILL_AREA_STYLE('',(#1288));
#1288 = FILL_AREA_STYLE_COLOUR('',#1289);
#1289 = COLOUR_RGB('',0.196078429142,0.196078429142,0.196078429142);
#1290 = CURVE_STYLE('',#1291,POSITIVE_LENGTH_MEASURE(0.1),#1280);
#1291 = DRAUGHTING_PRE_DEFINED_CURVE_FONT('continuous');
#1292 = MECHANICAL_DESIGN_GEOMETRIC_PRESENTATION_REPRESENTATION('',(
    #1293),#1243);
#1293 = STYLED_ITEM('color',(#1294),#961);
#1294 = PRESENTATION_STYLE_ASSIGNMENT((#1295,#1300));
#1295 = SURFACE_STYLE_USAGE(.BOTH.,#1296);
#1296 = SURFACE_SIDE_STYLE('',(#1297));
#1297 = SURFACE_STYLE_FILL_AREA(#1298);
#1298 = FILL_AREA_STYLE('',(#1299));
#1299 = FILL_AREA_STYLE_COLOUR('',#1277);
#1300 = CURVE_STYLE('',#1301,POSITIVE_LENGTH_MEASURE(0.1),#1280);
#1301 = DRAUGHTING_PRE_DEFINED_CURVE_FONT('continuous');
#1302 = MECHANICAL_DESIGN_GEOMETRIC_PRESENTATION_REPRESENTATION('',(
    #1303),#531);
#1303 = STYLED_ITEM('color',(#1304),#249);
#1304 = PRESENTATION_STYLE_ASSIGNMENT((#1305,#1310));
#1305 = SURFACE_STYLE_USAGE(.BOTH.,#1306);
#1306 = SURFACE_SIDE_STYLE('',(#1307));
#1307 = SURFACE_STYLE_FILL_AREA(#1308);
#1308 = FILL_AREA_STYLE('',(#1309));
#1309 = FILL_AREA_STYLE_COLOUR('',#1277);
#1310 = CURVE_STYLE('',#1311,POSITIVE_LENGTH_MEASURE(0.1),#1280);
#1311 = DRAUGHTING_PRE_DEFINED_CURVE_FONT('continuous');
ENDSEC;
END-ISO-10303-21;
